<?xml version="1.0" standalone="no"?>
<!DOCTYPE svg PUBLIC "-//W3C//DTD SVG 20010904//EN"
 "http://www.w3.org/TR/2001/REC-SVG-20010904/DTD/svg10.dtd">
<svg version="1.0" xmlns="http://www.w3.org/2000/svg"
 width="250.000000pt" height="250.000000pt" viewBox="0 0 250.000000 250.000000"
 preserveAspectRatio="xMidYMid meet">
<metadata>
Created by potrace 1.11, written by Peter Selinger 2001-2013
</metadata>
<g transform="translate(0.000000,250.000000) scale(0.100000,-0.100000)"
fill="#000000" stroke="none">
<path d="M30 1970 c0 -4 18 -10 39 -14 39 -6 93 -48 117 -91 11 -19 12 -19 45
6 50 38 142 80 188 86 88 12 32 18 -174 19 -118 1 -215 -2 -215 -6z"/>
<path d="M460 1918 c-129 -33 -228 -89 -282 -160 -128 -168 -122 -456 12 -571
47 -40 129 -86 168 -94 30 -6 139 -6 162 0 120 32 199 152 158 242 -14 30 -32
34 -23 4 4 -12 4 -40 0 -64 -6 -46 -52 -101 -109 -130 -41 -21 -129 -19 -175
4 -168 86 -237 428 -119 594 66 93 154 134 270 128 31 -2 79 -53 112 -120 31
-62 70 -156 211 -521 31 -80 67 -172 80 -205 13 -33 48 -123 78 -200 30 -77
67 -175 83 -218 16 -42 31 -77 34 -77 4 0 31 73 44 120 3 8 59 175 126 370 67
195 126 371 132 390 l10 35 14 -35 c7 -19 29 -78 49 -130 21 -52 50 -129 66
-170 15 -41 64 -167 107 -280 44 -113 87 -226 97 -252 17 -47 35 -63 35 -33 0
8 18 68 41 133 22 64 42 124 44 132 2 8 20 62 40 120 20 58 37 112 40 120 14
59 207 624 223 656 40 78 142 162 244 200 l63 23 -325 0 c-323 0 -325 0 -279
-18 75 -29 153 -87 178 -130 38 -69 27 -150 -49 -371 -10 -30 -42 -127 -70
-215 -28 -88 -54 -167 -57 -175 -3 -8 -7 -19 -9 -25 -15 -61 -19 -55 -113 188
-52 133 -102 260 -112 282 -58 137 -129 331 -129 355 0 32 40 62 120 92 44 16
39 16 -227 17 -176 1 -273 -3 -273 -9 0 -5 7 -10 15 -10 8 0 38 -24 68 -52 47
-47 60 -70 111 -193 l58 -140 -42 -125 c-69 -206 -151 -434 -160 -443 -4 -5
-39 72 -78 170 -298 753 -283 712 -261 739 14 18 51 35 87 41 12 2 32 8 45 13
29 12 -486 11 -533 -2z"/>
<path d="M420 1831 c-55 -17 -98 -47 -149 -104 -24 -26 -24 -29 -22 -204 2
-148 5 -182 21 -212 31 -62 72 -100 128 -119 48 -17 100 -19 103 -3 1 3 2 123
3 266 1 143 6 271 10 285 5 14 17 36 28 50 18 23 18 25 2 37 -19 14 -84 16
-124 4z"/>
<path d="M250 1022 l0 -68 -102 1 c-57 1 -109 -1 -115 -3 -8 -3 -13 -23 -13
-53 0 -40 3 -49 18 -50 9 0 61 0 115 1 l97 1 0 -68 c0 -45 -7 -82 -19 -108
-22 -48 -81 -108 -122 -125 -16 -7 -29 -15 -29 -19 0 -4 520 -6 584 -2 6 1
-12 15 -39 32 -85 54 -115 109 -118 212 l-2 72 208 1 c114 1 210 4 212 6 6 6
-25 98 -33 99 -4 1 -92 2 -197 3 l-190 1 1 47 0 48 -50 -1 c-62 -1 -122 9
-158 27 -44 23 -48 18 -48 -54z"/>
</g>
</svg>
