
<svg xmlns="http://www.w3.org/2000/svg" viewBox="0 0 791.16 969.77"><title>execute</title><g id="Слой_2" data-name="Слой 2"><g id="Слой_2-2" data-name="Слой 2"><path d="M391.68,552.58,0,276.29,391.68,0,784.41,276.29ZM43.37,276.29,391.7,522,741,276.29,391.7,30.58Z"/><path d="M391.67,748.46,1.76,479.74l90-83.7L391.64,619.66l295-223,104.52,78.07ZM41.61,476.84l350.1,241.28,356.5-244.27-61.48-45.93-295,223L93.56,428.54Z"/><path d="M391.63,969.77,2.16,683.45l87.32-81.78,302.78,231,301.44-225,97,72.78ZM41.21,681.13,391.74,938.81l356.89-258.7-55-41.22-301.56,225-301-229.57Z"/></g></g></svg>