<?xml version="1.0" encoding="utf-8"?>
<!-- Generator: Adobe Illustrator 22.1.0, SVG Export Plug-In . SVG Version: 6.00 Build 0)  -->
<svg version="1.1" id="Слой_1" xmlns="http://www.w3.org/2000/svg" xmlns:xlink="http://www.w3.org/1999/xlink" x="0px" y="0px"
	 viewBox="0 0 512 512" style="enable-background:new 0 0 512 512;" xml:space="preserve">
<path d="M488,440h-40V88c13.2,0,24-10.8,24-24V24c0-4.4-3.6-8-8-8H48c-4.4,0-8,3.6-8,8v40c0,13.2,10.8,24,24,24v352H24
	c-4.4,0-8,3.6-8,8v40c0,4.4,3.6,8,8,8h464c4.4,0,8-3.6,8-8v-40C496,443.6,492.4,440,488,440z M56,64V32h400v32c0,4.4-3.6,8-8,8H64
	C59.6,72,56,68.4,56,64z M432,88v352H80V88H432z M480,480H32v-24h448V480z"/>
<path d="M416,96H96c-4.4,0-8,3.6-8,8v320c0,4.4,3.6,8,8,8h320c4.4,0,8-3.6,8-8V104C424,99.6,420.4,96,416,96z M248,416H104V264h144
	V416z M248,248H104V112h144V248z M408,416H264V264h144V416z M408,248H264V112h144V248z"/>
<path d="M122.3,162.3l32-32l11.3,11.3l-32,32L122.3,162.3z"/>
<path d="M122.3,202.3l72-72l11.3,11.3l-72,72L122.3,202.3z"/>
</svg>
