<?xml version="1.0" encoding="utf-8"?>
<!-- Generator: Adobe Illustrator 22.1.0, SVG Export Plug-In . SVG Version: 6.00 Build 0)  -->
<svg version="1.1" id="Capa_1" xmlns="http://www.w3.org/2000/svg" xmlns:xlink="http://www.w3.org/1999/xlink" x="0px" y="0px"
	 viewBox="0 0 863.8 512" enable-background="new 0 0 863.8 512" xml:space="preserve">
<path d="M321,0H7.5C3.4,0,0,3.4,0,7.5V297c0,4.1,3.4,7.5,7.5,7.5s7.5-3.4,7.5-7.5V15h298.5V497h-17V395.4c0-4.1-3.4-7.5-7.5-7.5
	s-7.5,3.4-7.5,7.5V497H47V47h234.5v318.3c0,4.1,3.4,7.5,7.5,7.5c4.1,0,7.5-3.4,7.5-7.5V39.5c0-4.2-3.4-7.5-7.5-7.5H39.5
	c-4.2,0-7.5,3.4-7.5,7.5V497H15V327c0-4.1-3.4-7.5-7.5-7.5S0,322.9,0,327v177.4c0,4.1,3.4,7.5,7.5,7.5H321c4.1,0,7.5-3.4,7.5-7.5
	V7.5C328.5,3.4,325.2,0,321,0L321,0z"/>
<path d="M81.3,167.6c-4.1,0-7.5,3.4-7.5,7.5V247c0,4.1,3.4,7.5,7.5,7.5h166c4.1,0,7.5-3.4,7.5-7.5V80.3c0-4.2-3.4-7.5-7.5-7.5h-166
	c-4.1,0-7.5,3.4-7.5,7.5v64.8c0,4.1,3.4,7.5,7.5,7.5s7.5-3.4,7.5-7.5V87.8h151v151.7h-151v-64.4C88.8,171,85.4,167.6,81.3,167.6
	L81.3,167.6z"/>
<path d="M73.7,463.7c0,4.1,3.4,7.5,7.5,7.5h166c4.1,0,7.5-3.4,7.5-7.5V297c0-4.1-3.4-7.5-7.5-7.5h-166c-4.1,0-7.5,3.4-7.5,7.5
	L73.7,463.7z M88.8,304.5h151v151.7h-151L88.8,304.5z"/>
<path d="M274.6,272c0-7.8-6.4-14.2-14.2-14.2c-5.1,0-9.5,2.7-12,6.7h-17.9c-4.1,0-7.5,3.4-7.5,7.5c0,4.1,3.4,7.5,7.5,7.5h17.9
	c2.5,4,6.9,6.7,12,6.7C268.2,286.2,274.6,279.8,274.6,272z"/>
<g>
	<path d="M855.3,452.3h-42.7V76.8c14.1,0,25.6-11.5,25.6-25.6V8.5c0-4.7-3.8-8.5-8.5-8.5H385.9c-4.7,0-8.5,3.8-8.5,8.5v42.7
		c0,14.1,11.5,25.6,25.6,25.6v375.5h-42.7c-4.7,0-8.5,3.8-8.5,8.5v42.7c0,4.7,3.8,8.5,8.5,8.5h494.9c4.7,0,8.5-3.8,8.5-8.5v-42.7
		C863.8,456.1,860,452.3,855.3,452.3z M394.5,51.2V17.1h426.7v34.1c0,4.7-3.8,8.5-8.5,8.5H403C398.3,59.7,394.5,55.9,394.5,51.2z
		 M795.5,76.8v375.5H420.1V76.8H795.5z M846.7,494.9H368.9v-25.6h477.9V494.9z"/>
	<path d="M778.5,85.3H437.1c-4.7,0-8.5,3.8-8.5,8.5v341.3c0,4.7,3.8,8.5,8.5,8.5h341.3c4.7,0,8.5-3.8,8.5-8.5V93.9
		C787,89.2,783.2,85.3,778.5,85.3z M599.3,426.7H445.7V264.5h153.6V426.7z M599.3,247.5H445.7V102.4h153.6V247.5z M769.9,426.7
		H616.3V264.5h153.6V426.7z M769.9,247.5H616.3V102.4h153.6V247.5z"/>
	<path d="M465.2,156.1l34.1-34.1l12.1,12.1l-34.1,34.1L465.2,156.1z"/>
	<path d="M465.2,198.8L542,122L554,134l-76.8,76.8L465.2,198.8z"/>
</g>
</svg>
