<?xml version="1.0" encoding="utf-8"?>
<!-- Generator: Adobe Illustrator 22.1.0, SVG Export Plug-In . SVG Version: 6.00 Build 0)  -->
<svg version="1.1" id="Слой_1" xmlns="http://www.w3.org/2000/svg" xmlns:xlink="http://www.w3.org/1999/xlink" x="0px" y="0px"
	 viewBox="0 0 257.4 231.3" style="enable-background:new 0 0 257.4 231.3;" xml:space="preserve">
<style type="text/css">
	.st0{fill:#FFFFFF;}
</style>
<title>Logo</title>
<path class="st0" d="M39,204v0.7c-0.3,0-0.6,0-1,0.1c-0.3,0.1-0.5,0.2-0.8,0.3c-0.2,0.1-0.5,0.3-0.6,0.5c-0.2,0.3-0.4,0.5-0.6,0.9
	c-0.5,1.1-0.9,2.2-1.2,3.3l-7.5,21.5h-0.8l-6.1-17l-6.1,17h-0.7l-7.9-22.2c-0.6-1.7-1-2.6-1.1-2.9c-0.2-0.5-0.6-0.9-1.1-1.1
	c-0.6-0.3-1.2-0.4-1.8-0.4V204h9.9v0.7h-0.5c-0.6,0-1.1,0.1-1.6,0.5c-0.4,0.3-0.6,0.7-0.6,1.1c0,0.4,0.1,0.8,0.2,1.1
	c0.1,0.5,0.4,1.2,0.7,2l5.3,15l4.4-12.7l-1.4-4c-0.2-0.4-0.4-0.9-0.6-1.3c-0.2-0.3-0.4-0.7-0.7-0.9c-0.3-0.3-0.6-0.5-1-0.6
	c-0.4-0.1-0.9-0.2-1.3-0.2V204h10.4v0.7h-0.7c-0.6-0.1-1.2,0.1-1.6,0.5c-0.3,0.3-0.5,0.8-0.5,1.3c0.1,1.2,0.4,2.4,0.9,3.5l5.1,14.5
	l5-14.7c0.4-1.1,0.7-2.2,0.9-3.4c0-0.6-0.3-1.1-0.8-1.3c-0.7-0.3-1.4-0.4-2.1-0.4V204H39z M54,203.4c3.4,0,6.7,1.4,9,4
	c2.5,2.6,3.9,6.2,3.8,9.8c0.1,3.7-1.3,7.4-3.8,10.1c-4.9,5.1-13,5.4-18.1,0.5c-0.1-0.1-0.3-0.3-0.4-0.4c-2.5-2.7-3.9-6.4-3.7-10.1
	c-0.1-3.9,1.4-7.7,4.3-10.4C47.4,204.6,50.7,203.3,54,203.4L54,203.4z M53.6,204.9c-1.3,0-2.5,0.3-3.6,0.9c-1.1,0.6-2,1.4-2.6,2.5
	c-0.7,1.2-1.3,2.5-1.6,3.8c-0.4,1.7-0.6,3.4-0.6,5.1c0,1.7,0.2,3.5,0.5,5.1c0.3,1.4,0.9,2.8,1.6,4c0.7,1.1,1.6,2,2.7,2.7
	c1.1,0.6,2.4,1,3.6,0.9c1.2,0,2.4-0.2,3.4-0.7c1.1-0.5,2-1.2,2.7-2.1c0.8-1.1,1.5-2.4,1.8-3.8c0.5-1.8,0.7-3.6,0.7-5.5
	c0-1.8-0.2-3.6-0.5-5.4c-0.3-1.4-0.9-2.8-1.6-4c-0.7-1.1-1.6-1.9-2.7-2.5C56.2,205.2,54.9,204.9,53.6,204.9L53.6,204.9z M83,203.4
	c3.4,0,6.7,1.4,9,4c2.5,2.6,3.9,6.2,3.8,9.8c0.1,3.7-1.3,7.3-3.8,10c-4.9,5.1-13,5.4-18.1,0.5c-0.1-0.1-0.3-0.3-0.4-0.4
	c-2.5-2.7-3.9-6.4-3.7-10.1c-0.1-3.9,1.4-7.7,4.3-10.4C76.5,204.6,79.7,203.3,83,203.4L83,203.4z M82.7,204.9
	c-1.3,0-2.5,0.3-3.6,0.9c-1.1,0.6-2,1.4-2.6,2.5c-0.7,1.2-1.3,2.5-1.6,3.8c-0.4,1.7-0.6,3.4-0.6,5.1c0,1.7,0.2,3.5,0.6,5.1
	c0.3,1.4,0.9,2.8,1.6,4c0.7,1.1,1.6,2,2.6,2.6c1.1,0.6,2.4,1,3.6,0.9c1.2,0,2.4-0.2,3.4-0.7c1.1-0.5,2-1.2,2.7-2.1
	c0.8-1.1,1.5-2.4,1.8-3.8c0.5-1.8,0.7-3.6,0.7-5.5c0-1.8-0.2-3.6-0.5-5.4c-0.3-1.4-0.9-2.8-1.6-4c-0.7-1.1-1.6-1.9-2.7-2.5
	C85.3,205.2,84,204.9,82.7,204.9L82.7,204.9z M98.1,230.7v-0.7h1c0.9,0.1,1.8-0.3,2.4-1.1c0.4-0.9,0.5-1.9,0.4-2.9v-17.2
	c0-1.7-0.2-2.7-0.6-3.1c-0.6-0.6-1.4-0.9-2.3-0.9h-1V204H109c4,0,7,0.5,9.1,1.4c2.1,0.9,3.9,2.5,5,4.5c1.3,2.2,2,4.7,1.9,7.3
	c0,1.9-0.3,3.7-1,5.4c-0.6,1.6-1.6,3.1-2.8,4.3c-1.3,1.2-2.9,2.2-4.7,2.8c-2.1,0.7-4.3,1-6.5,1L98.1,230.7z M105.7,228.8
	c1.4,0.3,2.8,0.5,4.2,0.6c1.4,0,2.9-0.3,4.2-0.8c1.3-0.5,2.4-1.4,3.3-2.4c1-1.1,1.7-2.4,2.2-3.8c0.6-1.6,0.8-3.3,0.8-4.9
	c0-1.7-0.2-3.4-0.8-5c-0.5-1.4-1.2-2.7-2.2-3.8c-0.9-1-2.1-1.8-3.4-2.4c-1.4-0.6-2.8-0.8-4.3-0.8c-0.6,0-1.3,0.1-1.9,0.1
	c-0.7,0.1-1.4,0.2-2.2,0.4L105.7,228.8L105.7,228.8z M164.2,204v0.7c-0.3,0-0.6,0-0.9,0.1c-0.3,0.1-0.5,0.2-0.8,0.3
	c-0.2,0.1-0.5,0.3-0.6,0.5c-0.2,0.3-0.4,0.5-0.6,0.9c-0.5,1.1-0.9,2.2-1.2,3.3l-7.4,21.5h-0.8l-6.1-17l-6.1,17H139l-7.9-22.1
	c-0.6-1.7-1-2.6-1.1-2.9c-0.2-0.5-0.6-0.9-1.1-1.1c-0.6-0.3-1.2-0.4-1.8-0.4V204h9.9v0.7h-0.5c-0.6,0-1.1,0.1-1.6,0.5
	c-0.3,0.3-0.5,0.7-0.5,1.1c0,0.4,0.1,0.8,0.2,1.1c0.1,0.5,0.4,1.2,0.7,2l5.3,15l4.4-12.7l-1.4-4c-0.2-0.4-0.4-0.9-0.6-1.3
	c-0.2-0.3-0.4-0.7-0.7-0.9c-0.3-0.3-0.6-0.5-1-0.6c-0.4-0.1-0.9-0.2-1.3-0.2V204h10.4v0.7h-0.7c-0.6-0.1-1.2,0.1-1.6,0.5
	c-0.3,0.3-0.5,0.8-0.5,1.3c0.1,1.2,0.4,2.4,0.9,3.5l5.1,14.5l5.1-14.7c0.4-1.1,0.7-2.2,0.9-3.4c0-0.6-0.3-1.1-0.8-1.3
	c-0.7-0.3-1.4-0.4-2.1-0.4V204H164.2z M179.2,203.4c3.4,0,6.7,1.4,9,4c2.5,2.6,3.9,6.2,3.8,9.8c0.1,3.7-1.3,7.4-3.8,10.1
	c-4.9,5.1-13,5.4-18.1,0.5c-0.1-0.1-0.3-0.3-0.4-0.4c-2.5-2.8-3.9-6.4-3.7-10.2c-0.1-3.9,1.4-7.7,4.3-10.4
	C172.7,204.6,176,203.3,179.2,203.4L179.2,203.4z M178.8,204.9c-1.3,0-2.5,0.3-3.6,0.9c-1.1,0.6-2,1.4-2.6,2.5
	c-0.8,1.2-1.3,2.5-1.6,3.8c-0.4,1.7-0.6,3.4-0.6,5.1c0,1.7,0.2,3.5,0.6,5.1c0.3,1.4,0.9,2.8,1.6,4c0.7,1.1,1.6,2,2.6,2.6
	c1.1,0.6,2.4,1,3.6,0.9c1.2,0,2.4-0.2,3.4-0.7c1.1-0.5,2-1.2,2.7-2.2c0.8-1.1,1.5-2.4,1.8-3.8c0.5-1.8,0.7-3.6,0.7-5.5
	c0-1.8-0.2-3.6-0.5-5.4c-0.3-1.4-0.9-2.8-1.6-4c-0.7-1.1-1.6-1.9-2.7-2.5C181.5,205.1,180.2,204.8,178.8,204.9L178.8,204.9z
	 M220.8,230.7h-7.1l-9-12.5h-0.9h-1.3h-0.6v7.8c0,1.7,0.2,2.7,0.6,3.1c0.6,0.6,1.4,0.9,2.2,0.9h1v0.7h-11.4V230h1
	c0.9,0.1,1.9-0.3,2.4-1.1c0.4-0.9,0.5-1.9,0.4-2.9v-17.2c0-1.7-0.2-2.7-0.6-3.1c-0.6-0.6-1.4-0.9-2.3-0.9h-1V204h9.7
	c2.1-0.1,4.2,0.1,6.3,0.6c0.7,0.2,1.3,0.5,1.9,0.9c0.6,0.4,1.1,0.9,1.5,1.4c0.4,0.5,0.8,1.2,1,1.8c0.3,0.7,0.4,1.4,0.4,2.1
	c0,0.8-0.1,1.6-0.4,2.3c-0.3,0.7-0.7,1.4-1.2,2c-0.6,0.6-1.3,1.1-2.1,1.5c-0.9,0.5-1.9,0.8-2.9,1l5.5,7.7c0.9,1.3,2,2.5,3.3,3.5
	c1.1,0.6,2.3,1,3.5,1.1L220.8,230.7L220.8,230.7z M201.8,217h1.2c1.1,0,2.3-0.1,3.4-0.4c0.9-0.2,1.7-0.7,2.4-1.2
	c0.6-0.5,1.1-1.1,1.4-1.9c0.3-0.7,0.5-1.5,0.5-2.3c0-0.8-0.1-1.5-0.4-2.3c-0.3-0.7-0.7-1.3-1.2-1.8c-0.5-0.5-1.1-0.9-1.8-1.2
	c-0.7-0.3-1.5-0.4-2.3-0.4c-0.4,0-0.9,0-1.3,0.1c-0.5,0.1-1.1,0.1-1.8,0.3L201.8,217L201.8,217z M232.5,215.9l9.8,9.8
	c1.2,1.3,2.6,2.4,4.1,3.3c1.1,0.6,2.3,0.9,3.5,1v0.7h-12.6V230c0.6,0,1.1-0.1,1.6-0.4c0.3-0.2,0.5-0.5,0.5-0.9c0-0.1,0-0.3,0-0.4
	c0-0.1-0.1-0.3-0.1-0.4c-0.1-0.2-0.3-0.4-0.4-0.6c-0.2-0.2-0.5-0.5-0.8-0.9l-9.2-9.1v8.6c0,0.6,0,1.1,0,1.5c0,0.3,0.1,0.7,0.1,1
	c0.1,0.2,0.2,0.4,0.3,0.6c0.2,0.2,0.4,0.3,0.6,0.4c0.5,0.3,1.2,0.5,1.8,0.5h0.9v0.7h-11.4V230h0.9c0.9,0.1,1.8-0.3,2.4-1
	c0.4-0.9,0.6-2,0.5-3v-17.3c0-0.6,0-1.1,0-1.5c0-0.3-0.1-0.7-0.1-1c-0.1-0.2-0.2-0.4-0.3-0.6c-0.2-0.2-0.3-0.3-0.6-0.4
	c-0.6-0.3-1.2-0.5-1.8-0.5h-0.9V204h11.4v0.7h-0.9c-0.3,0-0.5,0-0.8,0.1c-0.3,0.1-0.5,0.1-0.8,0.2c-0.2,0.1-0.5,0.3-0.7,0.4
	c-0.2,0.2-0.3,0.4-0.4,0.6c-0.2,0.8-0.3,1.7-0.2,2.6v8.2c0.5-0.4,1.1-0.9,1.8-1.5s1.3-1.2,2-1.9s1.4-1.3,2-2s1.3-1.3,1.8-1.9
	s1-1.1,1.4-1.5s0.6-0.7,0.7-0.8c0.3-0.4,0.5-0.9,0.5-1.4c0-0.3-0.1-0.6-0.4-0.8c-0.4-0.3-0.9-0.4-1.4-0.3h-0.6V204h9.8v0.7
	c-0.5,0-1.1,0.1-1.6,0.2c-0.3,0.1-0.5,0.2-0.8,0.3c-0.3,0.1-0.7,0.3-1,0.5c-0.4,0.2-0.7,0.5-1.1,0.8s-0.9,0.7-1.4,1.2L232.5,215.9z"
	/>
<path class="st0" d="M221.5,1.5l0.2,3.6h-0.4c0-0.5-0.2-0.9-0.3-1.3c-0.2-0.4-0.5-0.8-0.9-1c-0.5-0.2-1-0.3-1.5-0.3h-2.1v11.4
	c-0.1,0.6,0,1.2,0.3,1.7c0.3,0.3,0.8,0.5,1.3,0.5h0.5v0.4h-6.4V16h0.5c0.5,0.1,1-0.2,1.4-0.6c0.2-0.5,0.3-1.1,0.2-1.6V2.4h-1.8
	c-0.5,0-1,0-1.5,0.2c-0.4,0.1-0.8,0.4-1,0.8c-0.3,0.5-0.4,1.1-0.4,1.7h-0.4l0.2-3.5L221.5,1.5z M231.5,16.4l-5.8-12.6v10
	c-0.1,0.6,0,1.2,0.3,1.7c0.3,0.3,0.8,0.5,1.3,0.5h0.5v0.4h-5.3V16h0.5c0.5,0,1-0.2,1.4-0.6c0.2-0.5,0.3-1.1,0.2-1.6V4
	c0-0.5,0-1-0.2-1.4c-0.1-0.2-0.3-0.4-0.6-0.5c-0.4-0.2-0.9-0.2-1.3-0.2V1.5h4.3l5.4,11.7l5.3-11.7h4.2v0.4h-0.5
	c-0.5-0.1-1,0.2-1.4,0.6c-0.2,0.5-0.3,1-0.3,1.6v9.8c-0.1,0.6,0,1.2,0.3,1.7c0.3,0.3,0.8,0.5,1.3,0.5h0.5v0.4h-6.4V16h0.6
	c0.5,0.1,1-0.2,1.4-0.6c0.2-0.5,0.3-1.1,0.2-1.6v-10l-5.8,12.6H231.5z"/>
<path class="st0" d="M51.4,135.7V165c0.1,4.7,1.5,9.2,4,13.2c2.7,4.4,7.6,8.2,14.7,11.2H6.9c12.4-5.5,18.6-13.6,18.6-24.4v-33.9
	C34.4,135.8,43,137.6,51.4,135.7z"/>
<path class="st0" d="M58.4,46.1H107c-4.2,0.6-8.3,1.5-12.3,2.7c-5.2,1.4-7.8,3.7-7.8,6.8v1.7l35.7,90.1c1.5-3.7,3.3-8.5,5.4-14.3
	c2.1-5.8,4.8-13.7,8.3-23.6s6-17.1,7.5-21.5c-5-13-8.7-22-11-27s-7.7-10-16.2-15H174c-11.7,3.6-17.6,7.4-17.6,11.2
	c0,1.1,0.2,2.2,0.6,3.2l34.3,87c6.6-19.9,11.9-36,15.9-48.3s6.3-19.6,6.8-22c0.5-2,0.7-4,0.8-6c0.2-6.2-2.6-12.1-7.5-15.8
	c-5.6-4.2-11.8-7.4-18.6-9.3h68.8c-8.3,1.4-16.1,5-22.6,10.4c-6.2,5.3-10.3,10.4-12.3,15.3l-39.4,118.4l-36.4-94.5l-32.2,94.5
	c-0.6-2-4.2-11.4-10.8-28.2c-6.6-16.8-12.3-31.6-17.2-44.3c-4.9-12.7-9.7-25-14.3-36.9C67.7,69,63.9,61.1,61,57.3s-6.5-5.7-10.8-5.7
	c-7.9,0-15,3.1-21.3,9.3s-9.5,15.3-9.5,27.4c0,9.5,2.6,18.9,7.6,27.1c5.1,8.6,12,12.8,20.9,12.8c4.9,0,9.4-1.9,13.6-5.7
	c4.2-3.8,6.3-8,6.3-12.7c0-2.4-0.6-4.7-1.9-6.8c2.9,2.1,4.6,5.6,4.5,9.2c0,5-2.4,9.6-7.1,13.9c-4.7,4.2-11,6.4-18.7,6.4
	c-7.6,0-15.5-3.1-23.7-9.2c-8.2-6.1-12.3-15.7-12.3-28.9c0-15.9,4.9-27.9,14.7-36.1S44.8,46.1,58.4,46.1z"/>
<path class="st0" d="M57.6,57.4L57.6,57.4c-4,3.9-6.3,9.4-6.2,15v50.2c-4.9,0.7-10-0.1-14.4-2.4c-4.7-2.6-8.6-8.5-11.4-14.8V83.6
	c0-4.1-0.3-8.1-1-12.2c0-0.1-0.1-0.2-0.1-0.3c4.3-6.7,10.1-12.3,17.2-14.7C48.8,54.4,54.1,54.7,57.6,57.4z"/>
<path class="st0" d="M54.9,41.6c-12.5,0.1-24.2,4.1-35.1,13.2l0,0c-3.2-7.6-8.1-10.6-12.4-11.5l-6.7-1.6L0,41.2L54.9,41.6z"/>
<path class="st0" d="M3.7,145.7h87.7l4.3,11H3.7c-1,0-1.9-0.8-1.9-1.9v-7.2C1.9,146.5,2.7,145.7,3.7,145.7z"/>
<path class="st0" d="M13.1,26.5v0.7H1.7v-0.7h0.9c0.9,0.1,1.8-0.3,2.4-1c0.4-0.9,0.6-2,0.5-3V5.3c0-0.6,0-1.1,0-1.5
	c0-0.3-0.1-0.7-0.2-1C5.3,2.6,5.2,2.4,5,2.2C4.8,2.1,4.6,1.9,4.4,1.8C3.9,1.5,3.3,1.3,2.6,1.3h-1V0.6h11.4v0.7h-1
	c-0.9-0.1-1.8,0.3-2.4,1c-0.4,0.9-0.6,2-0.5,3v17.2c0,0.6,0,1.1,0,1.5c0,0.3,0.1,0.7,0.1,1c0.1,0.2,0.2,0.4,0.3,0.6
	c0.2,0.2,0.4,0.3,0.6,0.4c0.5,0.3,1.2,0.5,1.8,0.5L13.1,26.5z M13.6,0.6h7.2l16.3,20V5.2c0-1.6-0.2-2.7-0.5-3.1
	c-0.6-0.6-1.5-0.9-2.3-0.8h-0.9V0.6h9.3v0.7h-1c-0.9-0.1-1.8,0.3-2.4,1c-0.4,0.9-0.5,1.9-0.4,2.9v22.5h-0.7L20.5,6.2v16.4
	c0,1.6,0.2,2.7,0.5,3.1c0.6,0.6,1.5,0.9,2.3,0.8h1v0.7H15v-0.7h0.9c0.9,0.1,1.8-0.3,2.4-1c0.4-0.9,0.5-1.9,0.4-2.9V4.1
	c-0.4-0.5-0.7-0.8-1-1.1c-0.2-0.2-0.5-0.5-0.8-0.7c-0.2-0.2-0.5-0.3-0.8-0.4l-1-0.4c-0.6-0.1-1.1-0.2-1.7-0.2
	C13.6,1.3,13.6,0.6,13.6,0.6z M61.6,0v9.2h-0.7c-0.1-1.5-0.6-2.9-1.3-4.2c-0.3-0.5-0.7-1-1.1-1.4c-0.9-0.8-2-1.4-3.2-1.8
	c-0.6-0.2-1.2-0.3-1.8-0.3c-1.2,0-2.4,0.4-3.4,1.3c-0.4,0.4-0.8,0.8-1,1.3c-0.2,0.5-0.4,1-0.4,1.5c0,0.7,0.2,1.3,0.5,1.9
	c0.4,0.6,0.8,1.1,1.4,1.5c0.7,0.5,1.4,0.9,2.1,1.3l2.6,1.4c1.1,0.6,2.1,1.1,3,1.6c0.9,0.5,1.8,1.1,2.6,1.8c0.7,0.6,1.3,1.4,1.7,2.2
	c0.5,0.9,0.7,2,0.6,3c0,1-0.2,1.9-0.6,2.8c-0.4,0.9-1,1.7-1.8,2.4c-0.8,0.7-1.7,1.2-2.7,1.6c-1.1,0.4-2.2,0.6-3.4,0.6h-1.2
	c-0.3,0-0.6,0-0.9-0.1c-0.3,0-0.6-0.1-0.9-0.2c-0.3-0.1-0.7-0.2-1.2-0.4s-0.6-0.2-1-0.3l-0.9-0.3l-0.7-0.1l-0.4-0.1
	c-0.3,0-0.6,0.1-0.8,0.3c-0.3,0.4-0.4,0.8-0.4,1.2h-0.7v-9.2h0.7c0.1,0.8,0.3,1.7,0.6,2.5c0.2,0.6,0.5,1.2,0.8,1.8
	c0.3,0.5,0.7,0.9,1.1,1.3c0.5,0.4,1,0.8,1.5,1c1.2,0.6,2.5,0.9,3.9,0.9c0.8,0,1.5-0.1,2.3-0.3c0.6-0.2,1.2-0.6,1.7-1
	c0.4-0.4,0.8-0.9,1-1.4c0.2-0.5,0.4-1,0.4-1.6c0-0.8-0.2-1.5-0.5-2.2c-0.4-0.6-0.9-1.1-1.4-1.6c-0.7-0.5-1.3-0.9-2.1-1.3
	c-0.8-0.4-1.6-0.9-2.5-1.4s-2-1.1-2.9-1.7c-0.9-0.5-1.7-1.1-2.5-1.8c-0.7-0.6-1.3-1.3-1.7-2.2C45.9,9,45.7,8,45.7,7
	c0-0.9,0.2-1.8,0.6-2.7c0.4-0.8,0.9-1.6,1.6-2.2c0.7-0.6,1.6-1.2,2.5-1.5c1-0.4,2-0.6,3.1-0.6C55,0,56.6,0.4,58,1
	c0.5,0.3,1,0.4,1.5,0.5c0.3,0,0.6-0.1,0.8-0.3c0.3-0.3,0.4-0.8,0.5-1.2H61.6z M88.9,0.6v6.3h-0.4c-0.1-0.7-0.3-1.4-0.5-2.1
	c-0.2-0.5-0.6-1-1-1.4C86.5,3,86,2.7,85.5,2.5c-0.7-0.2-1.3-0.3-2-0.2h-3.7v20.3c0,1.6,0.2,2.7,0.5,3.1c0.6,0.6,1.4,0.9,2.3,0.8h0.9
	v0.7H72.2v-0.7h0.9c0.9,0.1,1.8-0.3,2.4-1c0.4-0.9,0.5-1.9,0.4-2.9V2.3h-3.2c-0.7,0-1.4,0-2.1,0.2c-0.6,0.1-1.1,0.3-1.5,0.7
	c-0.4,0.4-0.8,0.9-1,1.4c-0.3,0.7-0.5,1.5-0.6,2.3h-0.8V0.6H88.9z M109.4,0.6h9.3v0.7h-0.5c-0.2,0-0.4,0.1-0.6,0.1
	c-0.3,0.1-0.6,0.2-0.8,0.3c-0.3,0.2-0.6,0.3-0.9,0.5c-0.3,0.2-0.6,0.5-0.9,0.8c-0.3,0.3-0.6,0.7-0.9,1.1c-0.3,0.5-0.7,1-1.1,1.6
	L106.5,16v6.7c0,1.6,0.2,2.7,0.6,3.1c0.6,0.6,1.5,0.9,2.4,0.8h0.9v0.7H98.9v-0.7h0.9c0.9,0.1,1.8-0.3,2.4-1c0.4-0.9,0.5-1.9,0.4-2.9
	v-6.4L95.4,5.2C95,4.5,94.6,4,94.3,3.6s-0.5-0.7-0.7-0.9c-0.1-0.1-0.3-0.2-0.4-0.3C93,2.2,92.8,2,92.5,1.9c-0.3-0.2-0.6-0.3-0.9-0.4
	c-0.3-0.1-0.7-0.2-1.1-0.2V0.6H102v0.7h-0.6c-0.3,0-0.6,0-0.9,0.1c-0.3,0.1-0.5,0.2-0.8,0.3c-0.2,0.1-0.4,0.3-0.6,0.5
	c-0.2,0.2-0.2,0.5-0.2,0.8c0.2,0.9,0.6,1.8,1.2,2.6l5.6,8.6l5.2-8.2c0.6-0.8,1-1.7,1.2-2.8c0-0.3-0.1-0.5-0.2-0.8
	c-0.1-0.2-0.2-0.4-0.4-0.6c-0.2-0.2-0.5-0.3-0.8-0.4c-0.4-0.1-0.8-0.1-1.3-0.1C109.4,1.3,109.4,0.6,109.4,0.6z M142.4,19.9L143,20
	l-2.3,7.2h-20.6v-0.7h1c0.9,0.1,1.9-0.3,2.4-1.1c0.4-0.9,0.5-1.9,0.4-2.9V5.3c0-1.7-0.2-2.7-0.6-3.1c-0.6-0.6-1.4-0.9-2.3-0.9h-1
	V0.6h12.1v0.7c-0.6,0-1.2,0-1.8,0.1c-0.4,0-0.8,0.1-1.2,0.3c-0.3,0.1-0.5,0.3-0.7,0.5c-0.2,0.2-0.3,0.4-0.4,0.6c-0.3,1-0.4,2-0.3,3
	v16.8c0,0.4,0,0.8,0,1.2c0,0.3,0.1,0.5,0.2,0.8c0.1,0.2,0.2,0.4,0.3,0.5c0.1,0.1,0.3,0.3,0.5,0.3c1,0.2,2,0.3,3.1,0.2h2
	c1.5,0.1,2.9-0.1,4.3-0.5c0.4-0.1,0.8-0.3,1.2-0.6c0.4-0.3,0.8-0.6,1.1-1c0.4-0.5,0.7-1,1-1.5C141.7,21.3,142,20.6,142.4,19.9
	L142.4,19.9z M152.3,2.1v10.5h5.9c0.7,0,1.4-0.1,2.1-0.2c0.5-0.1,0.9-0.4,1.3-0.7c0.3-0.3,0.5-0.8,0.6-1.2c0.1-0.6,0.2-1.1,0.2-1.7
	h0.7V18h-0.7c-0.1-0.6-0.2-1.2-0.3-1.6c-0.1-0.3-0.2-0.6-0.3-0.9c-0.1-0.2-0.3-0.4-0.5-0.6c-0.2-0.2-0.4-0.3-0.7-0.5
	c-0.3-0.1-0.7-0.2-1-0.3c-0.5-0.1-1-0.1-1.4-0.1h-5.9v8.8c0,0.7,0,1.5,0.1,2.2c0.1,0.1,0.1,0.2,0.2,0.3c0.1,0.1,0.2,0.2,0.3,0.3
	c0.2,0.1,0.4,0.1,0.6,0.2c0.3,0,0.6,0.1,0.9,0.1h4.5c0.8,0,1.4,0,1.9-0.1c0.5,0,0.9-0.1,1.4-0.2c0.4-0.1,0.7-0.3,1-0.5
	c0.3-0.2,0.6-0.5,0.9-0.8c0.5-0.5,0.9-1,1.2-1.5c0.5-0.7,0.9-1.4,1.3-2.2h0.8l-2.3,6.7h-20.5v-0.7h0.9c0.3,0,0.5,0,0.8-0.1
	c0.3-0.1,0.5-0.1,0.8-0.3c0.2-0.1,0.5-0.3,0.7-0.4c0.2-0.2,0.3-0.4,0.4-0.6c0.2-0.8,0.3-1.7,0.2-2.6V5.2c0-1.7-0.2-2.7-0.5-3.1
	c-0.6-0.6-1.5-0.9-2.4-0.8h-0.9V0.6h20.6v5.8h-0.5c-0.1-0.6-0.3-1.2-0.4-1.8c-0.1-0.4-0.3-0.8-0.5-1.1c-0.2-0.3-0.4-0.5-0.6-0.7
	c-0.3-0.2-0.5-0.4-0.9-0.5c-0.9-0.2-1.8-0.3-2.8-0.3L152.3,2.1z"/>
</svg>
