<svg xmlns="http://www.w3.org/2000/svg" viewBox="0 0 257.47 231.26"><defs><style>.cls-1{fill:#3e220d;}.cls-1,.cls-2{fill-rule:evenodd;}.cls-2{fill:#ba1e24;}</style></defs><title>Logo</title><g id="Слой_2" data-name="Слой 2"><g id="Layer_1" data-name="Layer 1"><path class="cls-1" d="M38.95,204v.73a4.51,4.51,0,0,0-.95.09,2.6,2.6,0,0,0-.76.3,2.65,2.65,0,0,0-.64.54,4.73,4.73,0,0,0-.59.85,24.66,24.66,0,0,0-1.24,3.28l-7.45,21.49h-.79l-6.06-17-6.06,17h-.71L5.79,209.12c-.6-1.68-1-2.65-1.12-2.93a2.56,2.56,0,0,0-1.06-1.11,3.87,3.87,0,0,0-1.84-.36V204h9.87v.73h-.47a2.36,2.36,0,0,0-1.6.47A1.46,1.46,0,0,0,9,206.33a5.17,5.17,0,0,0,.21,1.13c.13.53.36,1.21.66,2l5.25,15,4.44-12.72-1.41-4a11.37,11.37,0,0,0-.64-1.28,3.9,3.9,0,0,0-.74-.93,2.9,2.9,0,0,0-1-.58,4.14,4.14,0,0,0-1.34-.19V204H24.81v.73H24.1a2.35,2.35,0,0,0-1.62.46,1.68,1.68,0,0,0-.5,1.29,12.65,12.65,0,0,0,.89,3.5L28,224.46,33,209.77a12.81,12.81,0,0,0,.87-3.38,1.31,1.31,0,0,0-.83-1.3,5.12,5.12,0,0,0-2.11-.38V204Zm15-.6a12.08,12.08,0,0,1,9,4,13.54,13.54,0,0,1,3.81,9.83,14,14,0,0,1-3.83,10.08,12.82,12.82,0,0,1-18.54.09,14,14,0,0,1-3.73-10.12A13.5,13.5,0,0,1,45,206.87a12.77,12.77,0,0,1,9-3.48Zm-.38,1.45a7.34,7.34,0,0,0-3.59.87,7.46,7.46,0,0,0-2.64,2.46A12.21,12.21,0,0,0,45.74,212a21.67,21.67,0,0,0-.56,5.11,22.31,22.31,0,0,0,.55,5.14,12.88,12.88,0,0,0,1.62,4A7.91,7.91,0,0,0,50,228.92a7,7,0,0,0,3.63.93,8.32,8.32,0,0,0,3.43-.71A7.18,7.18,0,0,0,59.79,227a11,11,0,0,0,1.81-3.78,20.19,20.19,0,0,0,.66-5.48,25,25,0,0,0-.54-5.43,12.21,12.21,0,0,0-1.63-4,7.48,7.48,0,0,0-2.71-2.52,7.8,7.8,0,0,0-3.78-.87Zm29.47-1.45a12.08,12.08,0,0,1,9,4,13.54,13.54,0,0,1,3.81,9.83A14,14,0,0,1,92,227.25a12.82,12.82,0,0,1-18.54.09,14,14,0,0,1-3.73-10.12,13.5,13.5,0,0,1,4.32-10.36,12.77,12.77,0,0,1,9-3.48Zm-.38,1.45a7.34,7.34,0,0,0-3.59.87,7.46,7.46,0,0,0-2.64,2.46A12.2,12.2,0,0,0,74.83,212a21.66,21.66,0,0,0-.56,5.11,22.31,22.31,0,0,0,.55,5.14,12.88,12.88,0,0,0,1.62,4,7.91,7.91,0,0,0,2.64,2.61,7,7,0,0,0,3.63.93,8.32,8.32,0,0,0,3.43-.71A7.18,7.18,0,0,0,88.88,227a11,11,0,0,0,1.81-3.78,20.19,20.19,0,0,0,.66-5.48,25,25,0,0,0-.54-5.43,12.21,12.21,0,0,0-1.63-4,7.48,7.48,0,0,0-2.71-2.52,7.8,7.8,0,0,0-3.78-.87Zm15.43,25.82v-.73h1a2.68,2.68,0,0,0,2.4-1.08,6.12,6.12,0,0,0,.43-2.91V208.71c0-1.68-.18-2.73-.55-3.13a2.88,2.88,0,0,0-2.28-.87h-1V204H109q6,0,9.09,1.36a10.78,10.78,0,0,1,5,4.53,13.82,13.82,0,0,1,1.91,7.31,15,15,0,0,1-1,5.43,11.45,11.45,0,0,1-2.83,4.26,13.14,13.14,0,0,1-4.68,2.79,19.34,19.34,0,0,1-6.49,1Zm7.61-1.92a19.54,19.54,0,0,0,4.2.55,10.54,10.54,0,0,0,4.2-.84,9.72,9.72,0,0,0,3.35-2.38,11.17,11.17,0,0,0,2.23-3.75,14.31,14.31,0,0,0,.81-4.94,14.46,14.46,0,0,0-.8-5,10.9,10.9,0,0,0-2.22-3.75,9.7,9.7,0,0,0-3.4-2.37,11.13,11.13,0,0,0-4.32-.83,12.55,12.55,0,0,0-1.89.15c-.67.1-1.39.24-2.15.42v22.68ZM164.23,204v.73a4.51,4.51,0,0,0-.95.09,2.6,2.6,0,0,0-.76.3,2.65,2.65,0,0,0-.64.54,4.75,4.75,0,0,0-.59.85,24.72,24.72,0,0,0-1.24,3.28l-7.45,21.49h-.79l-6.06-17-6.06,17H139l-7.92-22.14c-.6-1.68-1-2.65-1.12-2.93a2.56,2.56,0,0,0-1.06-1.11,3.87,3.87,0,0,0-1.84-.36V204h9.87v.73h-.47a2.36,2.36,0,0,0-1.6.47,1.46,1.46,0,0,0-.54,1.14,5.17,5.17,0,0,0,.21,1.13c.13.53.36,1.21.66,2l5.25,15,4.44-12.72-1.41-4a11.42,11.42,0,0,0-.64-1.28,3.9,3.9,0,0,0-.74-.93,2.9,2.9,0,0,0-1-.58,4.15,4.15,0,0,0-1.34-.19V204h10.35v.73h-.7a2.35,2.35,0,0,0-1.62.46,1.68,1.68,0,0,0-.5,1.29,12.65,12.65,0,0,0,.89,3.5l5.1,14.49,5.07-14.69a12.81,12.81,0,0,0,.87-3.38,1.31,1.31,0,0,0-.83-1.3,5.12,5.12,0,0,0-2.11-.38V204Zm15-.6a12.08,12.08,0,0,1,9,4,13.54,13.54,0,0,1,3.81,9.83,14,14,0,0,1-3.83,10.08,12.82,12.82,0,0,1-18.54.09A14,14,0,0,1,166,217.23a13.5,13.5,0,0,1,4.32-10.36,12.77,12.77,0,0,1,9-3.48Zm-.38,1.45a7.34,7.34,0,0,0-3.59.87,7.45,7.45,0,0,0-2.64,2.46A12.21,12.21,0,0,0,171,212a21.67,21.67,0,0,0-.56,5.11,22.3,22.3,0,0,0,.55,5.14,12.88,12.88,0,0,0,1.62,4,7.91,7.91,0,0,0,2.64,2.61,7,7,0,0,0,3.63.93,8.32,8.32,0,0,0,3.43-.71,7.18,7.18,0,0,0,2.74-2.19,11,11,0,0,0,1.81-3.78,20.18,20.18,0,0,0,.66-5.48,25,25,0,0,0-.54-5.43,12.21,12.21,0,0,0-1.63-4,7.48,7.48,0,0,0-2.71-2.52,7.8,7.8,0,0,0-3.78-.87Zm42,25.82h-7.13l-9-12.49-.92,0h-1.27l-.61,0v7.76c0,1.69.18,2.73.55,3.14a2.79,2.79,0,0,0,2.24.87h1v.73h-11.4v-.73h1a2.71,2.71,0,0,0,2.42-1.1,6.24,6.24,0,0,0,.41-2.89V208.71c0-1.68-.18-2.73-.55-3.13a2.88,2.88,0,0,0-2.28-.87h-1V204H204a22.82,22.82,0,0,1,6.26.63,6.84,6.84,0,0,1,1.88.88,7.07,7.07,0,0,1,1.53,1.4,6.44,6.44,0,0,1,1,1.81,6,6,0,0,1,.38,2.14,6.64,6.64,0,0,1-.4,2.31,5.76,5.76,0,0,1-1.22,2,7.36,7.36,0,0,1-2.06,1.53,11.66,11.66,0,0,1-2.92,1l5.52,7.66a13.73,13.73,0,0,0,3.25,3.5,8.27,8.27,0,0,0,3.54,1.1v.73Zm-19-13.72H203a11.53,11.53,0,0,0,3.36-.44,7.07,7.07,0,0,0,2.42-1.23,5,5,0,0,0,1.45-1.86,5.59,5.59,0,0,0,.48-2.33,6.05,6.05,0,0,0-.42-2.27,5.1,5.1,0,0,0-1.17-1.78,5.29,5.29,0,0,0-1.81-1.16,6.32,6.32,0,0,0-2.32-.41,11.51,11.51,0,0,0-1.34.09c-.52.06-1.1.15-1.76.29v11.08Zm30.64-1.09,9.79,9.79a18.22,18.22,0,0,0,4.12,3.3,9.26,9.26,0,0,0,3.46,1v.73H237.22v-.73a2.74,2.74,0,0,0,1.64-.38,1.1,1.1,0,0,0,.5-.86c0-.15,0-.29,0-.42a1,1,0,0,0-.15-.4,4.63,4.63,0,0,0-.41-.55c-.19-.22-.47-.51-.83-.87l-9.18-9.12v8.61c0,.62,0,1.14,0,1.53a4.67,4.67,0,0,0,.15,1,1.52,1.52,0,0,0,.32.6,2.52,2.52,0,0,0,.58.42,3.62,3.62,0,0,0,1.79.47h.91v.73h-11.4v-.73h.95a2.83,2.83,0,0,0,2.41-1,5.91,5.91,0,0,0,.47-3V208.71c0-.6,0-1.1,0-1.5a4.35,4.35,0,0,0-.15-1,1.63,1.63,0,0,0-.33-.62,1.94,1.94,0,0,0-.56-.44,3.72,3.72,0,0,0-1.81-.47h-.95V204h11.4v.73h-.91a4,4,0,0,0-.78.08,3.78,3.78,0,0,0-.77.24,2.55,2.55,0,0,0-.66.44,1.56,1.56,0,0,0-.44.64,9.07,9.07,0,0,0-.24,2.59v8.16c.51-.42,1.09-.93,1.75-1.54s1.33-1.23,2-1.91,1.37-1.34,2-2,1.29-1.29,1.84-1.86,1-1.06,1.38-1.48.61-.7.72-.84a2.57,2.57,0,0,0,.53-1.38,1,1,0,0,0-.4-.8,2.2,2.2,0,0,0-1.4-.34h-.61V204h9.79v.73a7.33,7.33,0,0,0-1.57.24,7.94,7.94,0,0,0-.79.32,7.09,7.09,0,0,0-1,.53c-.35.22-.73.5-1.14.81s-.87.71-1.37,1.17Z"/><path class="cls-2" d="M221.52,1.45,221.68,5h-.42a4.3,4.3,0,0,0-.33-1.32A2.2,2.2,0,0,0,220,2.7a3.16,3.16,0,0,0-1.49-.3h-2.1V13.81a3.07,3.07,0,0,0,.3,1.72A1.65,1.65,0,0,0,218,16h.51v.41h-6.36V16h.54a1.54,1.54,0,0,0,1.36-.58,3.35,3.35,0,0,0,.24-1.61V2.4h-1.79a5.07,5.07,0,0,0-1.49.15,2,2,0,0,0-1,.8A3.27,3.27,0,0,0,209.56,5h-.42l.16-3.51Zm9.94,14.95L225.69,3.82v10a3.07,3.07,0,0,0,.3,1.72,1.67,1.67,0,0,0,1.31.46h.53v.41h-5.25V16h.54a1.55,1.55,0,0,0,1.36-.58,3.35,3.35,0,0,0,.24-1.61V4a3.44,3.44,0,0,0-.22-1.44,1.26,1.26,0,0,0-.58-.54,3.13,3.13,0,0,0-1.34-.21V1.45h4.28l5.39,11.69,5.34-11.69h4.24v.41h-.52a1.56,1.56,0,0,0-1.37.57A3.35,3.35,0,0,0,239.69,4v9.76a3,3,0,0,0,.31,1.72,1.67,1.67,0,0,0,1.31.46h.52v.41h-6.4V16H236a1.53,1.53,0,0,0,1.36-.58,3.36,3.36,0,0,0,.24-1.61v-10L231.82,16.4Z"/><path class="cls-1" d="M51.37,135.71V165a25.35,25.35,0,0,0,4,13.19q4,6.66,14.66,11.17H6.89q18.65-8.2,18.65-24.36V131.14C34.37,135.79,43,137.63,51.37,135.71Z"/><path class="cls-2" d="M58.44,46.12H107A91.69,91.69,0,0,0,94.7,48.84Q86.93,51,86.93,55.68v1.69l35.67,90.14q2.25-5.62,5.37-14.34c2.06-5.81,4.84-13.68,8.28-23.61s6-17.08,7.47-21.46q-7.5-19.49-11-27t-16.21-15h57.53q-17.62,5.44-17.62,11.24a10.08,10.08,0,0,0,.56,3.19l34.3,87q9.93-29.8,15.93-48.26t6.75-22a30,30,0,0,0,.75-6,19.12,19.12,0,0,0-7.5-15.84,56.14,56.14,0,0,0-18.55-9.28h68.78a46.88,46.88,0,0,0-22.58,10.4C228.7,61.83,224.61,67,222.61,71.83L183.26,190.21,146.9,95.73l-32.23,94.48q-.94-3-10.78-28.24T86.65,117.68q-7.4-19-14.34-36.86C67.69,69,63.91,61.09,61,57.27s-6.53-5.71-10.78-5.71q-11.81,0-21.27,9.28T19.46,88.29a52.4,52.4,0,0,0,7.59,27.08q7.59,12.84,20.9,12.84,7.31,0,13.59-5.72t6.28-12.65a13.1,13.1,0,0,0-1.87-6.75,10.87,10.87,0,0,1,4.5,9.18q0,7.5-7.12,13.87t-18.74,6.37q-11.43,0-23.71-9.18T8.59,94.48q0-23.8,14.71-36.08T58.44,46.12Z"/><path class="cls-1" d="M57.61,57.42s0,0,0,0a20.62,20.62,0,0,0-6.22,15v50.17a23.74,23.74,0,0,1-14.44-2.38c-4.68-2.58-8.57-8.51-11.38-14.84V83.58a67.42,67.42,0,0,0-1-12.15c0-.11-.12-.23-.06-.32,4.34-6.66,10.08-12.27,17.23-14.71C48.75,54.43,54.09,54.71,57.61,57.42Z"/><path class="cls-1" d="M54.91,41.57c-12.51.06-24.22,4.13-35.1,13.18,0,0,0,0,0,0C16.62,47.15,11.67,44.19,7.44,43.2L.74,41.64,0,41.23Z"/><path class="cls-1" d="M3.74,145.67H91.41l4.26,11H3.74a1.9,1.9,0,0,1-1.89-1.89v-7.22A1.9,1.9,0,0,1,3.74,145.67Z"/><path class="cls-1" d="M13.11,26.54v.73H1.67v-.73h.95a2.83,2.83,0,0,0,2.41-1,5.91,5.91,0,0,0,.47-3V5.32c0-.63,0-1.14,0-1.54a4.81,4.81,0,0,0-.15-1A1.36,1.36,0,0,0,5,2.22a2.18,2.18,0,0,0-.56-.42,3.73,3.73,0,0,0-1.81-.47H1.67V.6H13.11v.73h-1a2.78,2.78,0,0,0-2.38,1,5.69,5.69,0,0,0-.49,3V22.55c0,.63,0,1.14,0,1.54a4.67,4.67,0,0,0,.15,1,1.52,1.52,0,0,0,.32.6,2.49,2.49,0,0,0,.57.42,3.59,3.59,0,0,0,1.79.47ZM13.55.6h7.21l16.31,20V5.23c0-1.64-.18-2.67-.55-3.07a3,3,0,0,0-2.31-.83h-.93V.6h9.3v.73h-.95a2.72,2.72,0,0,0-2.4,1,5.91,5.91,0,0,0-.44,2.87V27.71h-.73L20.52,6.24V22.65c0,1.64.18,2.67.53,3.07a2.93,2.93,0,0,0,2.31.83h.95v.73H15v-.73h.93a2.75,2.75,0,0,0,2.42-1,5.91,5.91,0,0,0,.44-2.87V4.1c-.39-.46-.72-.83-1-1.1a6,6,0,0,0-.75-.68,3.59,3.59,0,0,0-.76-.44l-1-.38a6.39,6.39,0,0,0-1.73-.17V.6ZM61.62,0V9.22h-.73A11.29,11.29,0,0,0,59.61,5a5.83,5.83,0,0,0-1.12-1.42,7.44,7.44,0,0,0-3.16-1.76,6.51,6.51,0,0,0-1.79-.25,5,5,0,0,0-3.36,1.26,4.19,4.19,0,0,0-1,1.31,3.49,3.49,0,0,0-.36,1.52,3.54,3.54,0,0,0,.51,1.92,5.77,5.77,0,0,0,1.4,1.5,15.58,15.58,0,0,0,2.09,1.34l2.62,1.4q1.58.85,3,1.65A14.15,14.15,0,0,1,61,15.25a7.8,7.8,0,0,1,1.74,2.22,6.45,6.45,0,0,1,.64,3,6.76,6.76,0,0,1-.62,2.84A7.29,7.29,0,0,1,61,25.66a8.51,8.51,0,0,1-2.65,1.61,9.32,9.32,0,0,1-3.38.6l-1.18,0a8.12,8.12,0,0,1-.94-.09,7,7,0,0,1-.93-.21c-.32-.1-.71-.24-1.16-.4s-.63-.23-1-.32l-.9-.25-.7-.15-.36-.06a1,1,0,0,0-.78.29,2.36,2.36,0,0,0-.42,1.22h-.72V18.73h.72a19.46,19.46,0,0,0,.6,2.51A8.89,8.89,0,0,0,48,23a6,6,0,0,0,1.11,1.32,7.56,7.56,0,0,0,1.54,1.05,8.59,8.59,0,0,0,3.87.93A6.56,6.56,0,0,0,56.8,26a5.1,5.1,0,0,0,1.67-1,4,4,0,0,0,1.05-1.4A4,4,0,0,0,59.88,22a4.08,4.08,0,0,0-.53-2.16,5.66,5.66,0,0,0-1.42-1.56,14.74,14.74,0,0,0-2.07-1.32c-.79-.42-1.62-.89-2.5-1.42s-1.95-1.15-2.87-1.68A14.1,14.1,0,0,1,48,12.1a7.54,7.54,0,0,1-1.7-2.17A6.24,6.24,0,0,1,45.71,7a6.32,6.32,0,0,1,.59-2.69,7,7,0,0,1,1.62-2.24A8,8,0,0,1,50.38.56,8.5,8.5,0,0,1,53.49,0,11.41,11.41,0,0,1,58,1a4.34,4.34,0,0,0,1.55.49,1.19,1.19,0,0,0,.84-.3A2.4,2.4,0,0,0,60.89,0ZM88.89.6V6.85h-.44a8.4,8.4,0,0,0-.52-2.12,3.93,3.93,0,0,0-1-1.4,3.63,3.63,0,0,0-1.44-.79,7.23,7.23,0,0,0-2-.24H79.79V22.65c0,1.64.17,2.67.53,3.07a2.9,2.9,0,0,0,2.3.83h.92v.73H72.22v-.73h.95a2.72,2.72,0,0,0,2.4-1A5.89,5.89,0,0,0,76,22.65V2.3H72.8a11.48,11.48,0,0,0-2.11.17,3.63,3.63,0,0,0-1.53.66,3.47,3.47,0,0,0-1,1.39,9,9,0,0,0-.59,2.32h-.76V.6Zm20.5,0h9.31v.73h-.51a2.34,2.34,0,0,0-.64.12,5.43,5.43,0,0,0-.85.33,6.51,6.51,0,0,0-.92.55,6.17,6.17,0,0,0-.87.75A9.37,9.37,0,0,0,114,4.2c-.32.46-.68,1-1.09,1.63L106.49,16v6.69c0,1.64.18,2.66.55,3.07a3,3,0,0,0,2.37.83h.87v.73H98.92v-.73h.95a2.72,2.72,0,0,0,2.4-1,5.89,5.89,0,0,0,.44-2.87V16.33L95.39,5.16C95,4.5,94.6,4,94.3,3.56s-.52-.69-.68-.86a4.59,4.59,0,0,0-.4-.34,4.37,4.37,0,0,0-.69-.46,4.64,4.64,0,0,0-.91-.4,3.21,3.21,0,0,0-1.05-.17V.6H102v.73h-.59a3.93,3.93,0,0,0-.87.1,2.39,2.39,0,0,0-.79.32,1.86,1.86,0,0,0-.58.54,1.31,1.31,0,0,0-.23.78,6.3,6.3,0,0,0,1.2,2.56l5.56,8.59L110.91,6a6.08,6.08,0,0,0,1.18-2.75,3.08,3.08,0,0,0-.17-.77,1.58,1.58,0,0,0-.44-.61,2,2,0,0,0-.81-.39,4.94,4.94,0,0,0-1.28-.14V.6Zm33,19.29L143,20l-2.3,7.23H120.07v-.73h1a2.71,2.71,0,0,0,2.42-1.1,6.31,6.31,0,0,0,.41-2.91V5.32c0-1.68-.18-2.73-.55-3.13a2.88,2.88,0,0,0-2.28-.87h-1V.6h12.08v.73a13.3,13.3,0,0,0-1.8.1,4.37,4.37,0,0,0-1.19.3,2.28,2.28,0,0,0-.73.46,3,3,0,0,0-.44.58,8.47,8.47,0,0,0-.32,3V22.53a11.75,11.75,0,0,0,0,1.18,3.69,3.69,0,0,0,.17.81,1.51,1.51,0,0,0,.32.53,1.34,1.34,0,0,0,.52.33,12.76,12.76,0,0,0,3.07.2h2a14.32,14.32,0,0,0,4.32-.45,5.24,5.24,0,0,0,1.18-.59,5.43,5.43,0,0,0,1.07-1,10.3,10.3,0,0,0,1-1.5,20.9,20.9,0,0,0,1-2.14Zm9.91-17.84V12.57h5.87a7.67,7.67,0,0,0,2.07-.23,2.64,2.64,0,0,0,1.26-.71,2.68,2.68,0,0,0,.63-1.21,10.38,10.38,0,0,0,.24-1.72h.72V18h-.72c-.09-.65-.18-1.18-.28-1.59a4.67,4.67,0,0,0-.27-.89,2.17,2.17,0,0,0-.46-.61,2.4,2.4,0,0,0-.71-.46,4.06,4.06,0,0,0-1-.29,9,9,0,0,0-1.44-.1h-5.87v8.81a8.8,8.8,0,0,0,.15,2.17,2,2,0,0,0,.2.34,1,1,0,0,0,.34.26,2.16,2.16,0,0,0,.59.17,5.73,5.73,0,0,0,.91.06H159c.78,0,1.42,0,1.94-.07a7.61,7.61,0,0,0,1.36-.24,3.63,3.63,0,0,0,1-.48,7.47,7.47,0,0,0,.93-.78,10.14,10.14,0,0,0,1.24-1.51,20.07,20.07,0,0,0,1.25-2.17h.79l-2.3,6.69H144.67v-.73h.95a4.26,4.26,0,0,0,.79-.08,3.13,3.13,0,0,0,.78-.26,2.58,2.58,0,0,0,.66-.44,1.46,1.46,0,0,0,.42-.62,9,9,0,0,0,.23-2.58V5.24c0-1.68-.17-2.72-.51-3.13a3.07,3.07,0,0,0-2.37-.79h-.95V.6h20.58V6.44h-.48a17.7,17.7,0,0,0-.43-1.75,5.24,5.24,0,0,0-.5-1.14,2.45,2.45,0,0,0-.62-.72,4.23,4.23,0,0,0-.85-.48,9.07,9.07,0,0,0-2.77-.3Z"/></g></g></svg>