<svg xmlns="http://www.w3.org/2000/svg" xmlns:xlink="http://www.w3.org/1999/xlink"><symbol id="call-answer" viewBox="0 0 348.077 348.077">
<g>
	<g>
		<g>
			<path d="M340.273,275.083l-53.755-53.761c-10.707-10.664-28.438-10.34-39.518,0.744l-27.082,27.076
				c-1.711-0.943-3.482-1.928-5.344-2.973c-17.102-9.476-40.509-22.464-65.14-47.113c-24.704-24.701-37.704-48.144-47.209-65.257
				c-1.003-1.813-1.964-3.561-2.913-5.221l18.176-18.149l8.936-8.947c11.097-11.1,11.403-28.826,0.721-39.521L73.39,8.194
				C62.708-2.486,44.969-2.162,33.872,8.938l-15.15,15.237l0.414,0.411c-5.08,6.482-9.325,13.958-12.484,22.02
				C3.74,54.28,1.927,61.603,1.098,68.941C-6,127.785,20.89,181.564,93.866,254.541c100.875,100.868,182.167,93.248,185.674,92.876
				c7.638-0.913,14.958-2.738,22.397-5.627c7.992-3.122,15.463-7.361,21.941-12.43l0.331,0.294l15.348-15.029
				C350.631,303.527,350.95,285.795,340.273,275.083z"/>
		</g>
	</g>
</g>
<g>
</g>
<g>
</g>
<g>
</g>
<g>
</g>
<g>
</g>
<g>
</g>
<g>
</g>
<g>
</g>
<g>
</g>
<g>
</g>
<g>
</g>
<g>
</g>
<g>
</g>
<g>
</g>
<g>
</g>
</symbol><symbol id="dark-door" viewBox="0 0 512 512"><path d="m412.749 0h-313.498c-4.15 0-7.515 3.365-7.515 7.515v289.465c0 4.15 3.365 7.515 7.515 7.515s7.515-3.364 7.515-7.515v-281.951h298.469v481.941h-16.958v-101.59c0-4.15-3.365-7.515-7.515-7.515s-7.515 3.365-7.515 7.515v101.59h-234.494v-449.953h234.494v318.305c0 4.15 3.364 7.515 7.515 7.515 4.15 0 7.515-3.365 7.515-7.515v-325.82c0-4.15-3.365-7.515-7.515-7.515h-249.524c-4.15 0-7.515 3.364-7.515 7.515v457.469h-16.958v-169.932c0-4.15-3.365-7.515-7.515-7.515s-7.515 3.364-7.515 7.515v177.446c0 4.15 3.365 7.515 7.515 7.515h313.498c4.15 0 7.515-3.365 7.515-7.515v-496.97c.001-4.15-3.364-7.515-7.514-7.515z"/><path d="m172.995 167.6c-4.15 0-7.515 3.365-7.515 7.515v71.892c0 4.15 3.365 7.515 7.515 7.515h166.011c4.15 0 7.515-3.365 7.515-7.515v-166.742c0-4.15-3.365-7.515-7.515-7.515h-166.011c-4.15 0-7.515 3.364-7.515 7.515v64.791c0 4.15 3.365 7.515 7.515 7.515s7.515-3.365 7.515-7.515v-57.276h150.981v151.712h-150.982v-64.378c0-4.15-3.364-7.514-7.514-7.514z"/><path d="m165.48 463.722c0 4.15 3.365 7.515 7.515 7.515h166.011c4.15 0 7.515-3.364 7.515-7.515v-166.742c0-4.15-3.365-7.515-7.515-7.515h-166.011c-4.15 0-7.515 3.364-7.515 7.515zm15.029-159.227h150.981v151.712h-150.981z"/><path d="m366.318 271.994c0-7.822-6.364-14.186-14.186-14.186-5.06 0-9.498 2.672-12.01 6.671h-17.932c-4.15 0-7.515 3.364-7.515 7.515 0 4.15 3.365 7.515 7.515 7.515h17.932c2.512 3.999 6.949 6.671 12.01 6.671 7.822 0 14.186-6.364 14.186-14.186z"/></symbol><symbol id="envelope" viewBox="0 0 511.626 511.626">
<g>
	<g>
		<path d="M49.106,178.729c6.472,4.567,25.981,18.131,58.528,40.685c32.548,22.554,57.482,39.92,74.803,52.099
			c1.903,1.335,5.946,4.237,12.131,8.71c6.186,4.476,11.326,8.093,15.416,10.852c4.093,2.758,9.041,5.852,14.849,9.277
			c5.806,3.422,11.279,5.996,16.418,7.7c5.14,1.718,9.898,2.569,14.275,2.569h0.287h0.288c4.377,0,9.137-0.852,14.277-2.569
			c5.137-1.704,10.615-4.281,16.416-7.7c5.804-3.429,10.752-6.52,14.845-9.277c4.093-2.759,9.229-6.376,15.417-10.852
			c6.184-4.477,10.232-7.375,12.135-8.71c17.508-12.179,62.051-43.11,133.615-92.79c13.894-9.703,25.502-21.411,34.827-35.116
			c9.332-13.699,13.993-28.07,13.993-43.105c0-12.564-4.523-23.319-13.565-32.264c-9.041-8.947-19.749-13.418-32.117-13.418H45.679
			c-14.655,0-25.933,4.948-33.832,14.844C3.949,79.562,0,91.934,0,106.779c0,11.991,5.236,24.985,15.703,38.974
			C26.169,159.743,37.307,170.736,49.106,178.729z"/>
		<path d="M483.072,209.275c-62.424,42.251-109.824,75.087-142.177,98.501c-10.849,7.991-19.65,14.229-26.409,18.699
			c-6.759,4.473-15.748,9.041-26.98,13.702c-11.228,4.668-21.692,6.995-31.401,6.995h-0.291h-0.287
			c-9.707,0-20.177-2.327-31.405-6.995c-11.228-4.661-20.223-9.229-26.98-13.702c-6.755-4.47-15.559-10.708-26.407-18.699
			c-25.697-18.842-72.995-51.68-141.896-98.501C17.987,202.047,8.375,193.762,0,184.437v226.685c0,12.57,4.471,23.319,13.418,32.265
			c8.945,8.949,19.701,13.422,32.264,13.422h420.266c12.56,0,23.315-4.473,32.261-13.422c8.949-8.949,13.418-19.694,13.418-32.265
			V184.437C503.441,193.569,493.927,201.854,483.072,209.275z"/>
	</g>
</g>
<g>
</g>
<g>
</g>
<g>
</g>
<g>
</g>
<g>
</g>
<g>
</g>
<g>
</g>
<g>
</g>
<g>
</g>
<g>
</g>
<g>
</g>
<g>
</g>
<g>
</g>
<g>
</g>
<g>
</g>
</symbol><symbol id="facebook-logo" viewBox="0 0 96.124 96.123">
<g>
	<path d="M72.089,0.02L59.624,0C45.62,0,36.57,9.285,36.57,23.656v10.907H24.037c-1.083,0-1.96,0.878-1.96,1.961v15.803
		c0,1.083,0.878,1.96,1.96,1.96h12.533v39.876c0,1.083,0.877,1.96,1.96,1.96h16.352c1.083,0,1.96-0.878,1.96-1.96V54.287h14.654
		c1.083,0,1.96-0.877,1.96-1.96l0.006-15.803c0-0.52-0.207-1.018-0.574-1.386c-0.367-0.368-0.867-0.575-1.387-0.575H56.842v-9.246
		c0-4.444,1.059-6.7,6.848-6.7l8.397-0.003c1.082,0,1.959-0.878,1.959-1.96V1.98C74.046,0.899,73.17,0.022,72.089,0.02z"/>
</g>
<g>
</g>
<g>
</g>
<g>
</g>
<g>
</g>
<g>
</g>
<g>
</g>
<g>
</g>
<g>
</g>
<g>
</g>
<g>
</g>
<g>
</g>
<g>
</g>
<g>
</g>
<g>
</g>
<g>
</g>
</symbol><symbol id="idea" viewBox="0 0 512.002 512.002">
<g>
	<g>
		<path d="M422.286,195.543c-3.906-3.904-10.238-3.904-14.143,0c-3.905,3.906-3.905,10.238,0,14.143
			c0.154,0.154,0.314,0.311,0.469,0.455c1.93,1.807,4.385,2.701,6.835,2.701c2.668,0,5.332-1.063,7.3-3.164
			C426.523,205.649,426.316,199.319,422.286,195.543z"/>
	</g>
</g>
<g>
	<g>
		<path d="M401.969,179.119c-5.724-3.887-11.601-7.354-17.467-10.307c-33.186-16.699-68.353-20.051-101.701-9.695
			c-5.274,1.639-8.223,7.242-6.584,12.516c1.638,5.275,7.239,8.221,12.516,6.584c28.304-8.791,58.311-5.865,86.777,8.459
			c5.021,2.529,10.286,5.639,15.226,8.99c1.721,1.168,3.674,1.729,5.607,1.729c3.202,0,6.349-1.535,8.283-4.385
			C407.728,188.441,406.538,182.221,401.969,179.119z"/>
	</g>
</g>
<g>
	<g>
		<path d="M492.946,308.529c-4.1-8.6-10.889-22.842-11.011-27.553c11.694-28.824,7.428-60.721-12.05-89.898
			c-29.953-44.873-91.343-77.443-145.97-77.443c-28.876,0-57.073,6.886-82.441,20.031c-7.278-39.877-42.25-70.208-84.196-70.208
			c-47.206,0-85.61,38.404-85.61,85.609c0,30.033,15.306,57.34,40.94,73.045c7.39,4.528,9.062,8.442,9.656,14.855v34.143v24.373
			c0,11.166,9.082,20.25,20.245,20.25h3.4c5.493,43.776,26.679,83.521,60.309,112.768c0.317,0.988,1.242,5.619-2.732,19.436
			c-3.095,10.764-7.845,22.721-12.034,33.271c-2.804,7.059-5.226,13.156-6.69,17.766c-0.965,3.039-0.423,6.357,1.46,8.932
			c1.884,2.574,4.882,4.096,8.071,4.096h142.745c4.69,0,11.132-2.1,15.187-12.105c1.765-4.354,2.917-9.592,4.138-15.139
			c1.188-5.404,3.974-18.061,6.744-19.59c0.002,0,0.164-0.027,0.555,0.033c0.513,0.082,1.032,0.121,1.552,0.121
			c14.949,0,27.164,0.678,37.941,1.275c31.609,1.754,50.689,2.813,67.426-21.295c8.512-12.262,7.547-30.145,6.526-49.078
			c-0.526-9.758-1.069-19.83-0.105-28.203c1.745-1.719,6.115-4.719,8.855-6.6c9.427-6.475,18.33-12.588,18.33-21.883
			C504.19,332.473,499.917,323.152,492.946,308.529z M123.058,205.056c-19.655-12.04-31.389-32.97-31.389-55.99
			c0-36.178,29.433-65.609,65.61-65.609c36.178,0,65.61,29.432,65.61,65.609c0,23.02-11.733,43.951-31.389,55.992
			c-9.341,5.725-14.893,12.402-17.528,21.424l-16.696-0.006l-16.688,0.006C137.951,217.461,132.4,210.783,123.058,205.056z
			 M172.294,246.484v14.625h-30.028v-14.625H172.294z M142.511,295.732c-0.111,0-0.245-0.138-0.245-0.25v-14.373h30.028v14.373
			c0,0.113-0.135,0.25-0.248,0.25H142.511z M474.538,344.932c-8.607,5.912-16.041,11.016-17.137,18.74
			c-1.506,10.596-0.874,22.305-0.264,33.627c0.758,14.047,1.616,29.969-2.984,36.596c-9.95,14.334-18.556,14.473-49.889,12.732
			c-10.338-0.574-23.166-1.285-38.375-1.307c-5.841-0.688-15.724,0.408-22.319,13.229c-3.35,6.51-5.15,14.691-6.738,21.908
			c-0.798,3.627-1.919,8.723-2.969,11.543H208.689c0.438-1.105,0.89-2.244,1.354-3.412c14.406-36.273,23.53-62.877,9.642-74.883
			c-29.436-25.459-48.208-59.933-53.591-97.973h5.953c11.165,0,20.248-9.084,20.248-20.25v-24.373v-34.123
			c0.593-6.425,2.26-10.342,9.656-14.875c23.671-14.502,38.523-38.899,40.661-66.198c24.544-14.585,52.54-22.279,81.304-22.279
			c47.648,0,103.251,29.469,129.336,68.547c11.18,16.748,21.979,42.803,9.931,71.813c-3.924,9.447,1.894,22.549,11.71,43.141
			c3.178,6.666,7.778,16.316,8.996,20.824C481.823,339.93,477.381,342.98,474.538,344.932z"/>
	</g>
</g>
<g>
	<g>
		<path d="M206.331,134.937c-2.953-10.945-10.294-19.711-21.231-25.354c-4.908-2.529-10.939-0.605-13.472,4.305
			c-2.531,4.909-0.605,10.94,4.304,13.471c5.971,3.08,9.599,7.264,11.089,12.787c2.359,8.744-1.209,18.205-2.775,20.662
			c-2.969,4.658-1.6,10.84,3.057,13.809c1.666,1.063,3.527,1.568,5.366,1.568c3.303,0,6.535-1.633,8.441-4.625
			C205.376,164.871,210.286,149.595,206.331,134.937z"/>
	</g>
</g>
<g>
	<g>
		<path d="M157.279,0c-5.523,0-10,4.479-10,10v28.508c0,5.521,4.477,10,10,10c5.522,0,10-4.479,10-10V10
			C167.279,4.479,162.801,0,157.279,0z"/>
	</g>
</g>
<g>
	<g>
		<path d="M46.323,139.465H17.815c-5.523,0-10,4.479-10,10c0,5.523,4.477,10,10,10h28.509c5.522,0,9.999-4.477,9.999-10
			C56.323,143.944,51.845,139.465,46.323,139.465z"/>
	</g>
</g>
<g>
	<g>
		<path d="M110.457,48.363l-14.25-24.678c-2.762-4.783-8.879-6.42-13.661-3.66c-4.782,2.762-6.421,8.877-3.659,13.66l14.25,24.678
			c1.853,3.209,5.213,5.002,8.669,5.002c1.697,0,3.417-0.432,4.991-1.342C111.58,59.261,113.219,53.146,110.457,48.363z"/>
	</g>
</g>
<g>
	<g>
		<path d="M66.178,85.325l-24.681-14.25c-4.782-2.76-10.899-1.121-13.66,3.66c-2.762,4.783-1.123,10.898,3.66,13.66l24.681,14.25
			c1.574,0.91,3.294,1.342,4.99,1.342c3.456,0,6.817-1.793,8.67-5.002C72.6,94.204,70.961,88.087,66.178,85.325z"/>
	</g>
</g>
<g>
	<g>
		<path d="M286.725,74.734c-2.763-4.783-8.878-6.422-13.66-3.66l-24.681,14.25c-4.783,2.762-6.422,8.879-3.66,13.66
			c1.852,3.209,5.213,5.002,8.669,5.002c1.696,0,3.416-0.432,4.991-1.342l24.681-14.25
			C287.848,85.632,289.487,79.517,286.725,74.734z"/>
	</g>
</g>
<g>
	<g>
		<path d="M69.843,199.947c-2.76-4.783-8.874-6.42-13.658-3.662l-24.687,14.25c-4.783,2.76-6.423,8.877-3.662,13.66
			c1.852,3.209,5.214,5.002,8.67,5.002c1.696,0,3.415-0.432,4.99-1.34l24.686-14.25C70.965,210.847,72.605,204.73,69.843,199.947z"/>
	</g>
</g>
<g>
	<g>
		<path d="M104.74,240.467c-4.781-2.76-10.898-1.121-13.66,3.66L78.886,265.25c-2.761,4.783-1.122,10.9,3.661,13.66
			c1.575,0.91,3.294,1.342,4.99,1.342c3.456,0,6.818-1.793,8.67-5.002l12.194-21.123
			C111.163,249.344,109.524,243.229,104.74,240.467z"/>
	</g>
</g>
<g>
	<g>
		<path d="M232.015,20.025c-4.784-2.762-10.898-1.123-13.66,3.66l-14.25,24.678c-2.762,4.783-1.124,10.899,3.659,13.66
			c1.575,0.91,3.295,1.342,4.991,1.342c3.456,0,6.817-1.793,8.67-5.002l14.25-24.678C238.437,28.902,236.798,22.787,232.015,20.025z
			"/>
	</g>
</g>
<g>
</g>
<g>
</g>
<g>
</g>
<g>
</g>
<g>
</g>
<g>
</g>
<g>
</g>
<g>
</g>
<g>
</g>
<g>
</g>
<g>
</g>
<g>
</g>
<g>
</g>
<g>
</g>
<g>
</g>
</symbol><symbol id="instagram" viewBox="0 0 512 512"><path d="m437 0h-362c-41.351562 0-75 33.648438-75 75v362c0 41.351562 33.648438 75 75 75h362c41.351562 0 75-33.648438 75-75v-362c0-41.351562-33.648438-75-75-75zm-180 390c-74.441406 0-135-60.558594-135-135s60.558594-135 135-135 135 60.558594 135 135-60.558594 135-135 135zm150-240c-24.8125 0-45-20.1875-45-45s20.1875-45 45-45 45 20.1875 45 45-20.1875 45-45 45zm0 0"/><path d="m407 90c-8.277344 0-15 6.722656-15 15s6.722656 15 15 15 15-6.722656 15-15-6.722656-15-15-15zm0 0"/><path d="m257 150c-57.890625 0-105 47.109375-105 105s47.109375 105 105 105 105-47.109375 105-105-47.109375-105-105-105zm0 0"/></symbol><symbol id="kitchen" viewBox="0 0 480 480"><path d="m472 96h-144c-4.417969 0-8 3.582031-8 8v184h-176v-24c0-4.417969-3.582031-8-8-8h-24v16h16v16h-32v-32h-16v32h-32v-16h16v-16h-24c-4.417969 0-8 3.582031-8 8v24h-24c-4.417969 0-8 3.582031-8 8v176c0 4.417969 3.582031 8 8 8h464c4.417969 0 8-3.582031 8-8v-368c0-4.417969-3.582031-8-8-8zm-136 16h128v96h-128zm-16 224h-144v-32h144zm-304-32h144v32h-144zm0 48h144v112h-144zm160 0h64v112h-64zm80 0h64v112h-64zm80 112v-240h128v240zm0 0"/><path d="m352 144h16v32h-16zm0 0"/><path d="m352 256h16v32h-16zm0 0"/><path d="m48 320c0 4.417969-3.582031 8-8 8s-8-3.582031-8-8 3.582031-8 8-8 8 3.582031 8 8zm0 0"/><path d="m80 320c0 4.417969-3.582031 8-8 8s-8-3.582031-8-8 3.582031-8 8-8 8 3.582031 8 8zm0 0"/><path d="m112 320c0 4.417969-3.582031 8-8 8s-8-3.582031-8-8 3.582031-8 8-8 8 3.582031 8 8zm0 0"/><path d="m144 320c0 4.417969-3.582031 8-8 8s-8-3.582031-8-8 3.582031-8 8-8 8 3.582031 8 8zm0 0"/><path d="m8 152h160c4.417969 0 8-3.582031 8-8v-24c0-2.121094-.84375-4.15625-2.34375-5.65625l-32-32c-1.5-1.5-3.535156-2.34375-5.65625-2.34375h-8v-72c0-4.417969-3.582031-8-8-8h-64c-4.417969 0-8 3.582031-8 8v72h-8c-2.121094 0-4.15625.84375-5.65625 2.34375l-32 32c-1.5 1.5-2.34375 3.535156-2.34375 5.65625v24c0 4.417969 3.582031 8 8 8zm56-136h48v64h-48zm-48 107.3125 27.3125-27.3125h89.375l27.3125 27.3125v12.6875h-144zm0 0"/><path d="m136 368h-96c-4.417969 0-8 3.582031-8 8v64c0 4.417969 3.582031 8 8 8h96c4.417969 0 8-3.582031 8-8v-64c0-4.417969-3.582031-8-8-8zm-8 64h-80v-48h80zm0 0"/><path d="m232 312h32v16h-32zm0 0"/><path d="m208 392h16v32h-16zm0 0"/><path d="m272 392h16v32h-16zm0 0"/><path d="m192 200h48c4.417969 0 8-3.582031 8-8v-8c-.054688-14.546875-9.914062-27.226562-24-30.863281v-153.136719h-16v153.136719c-14.085938 3.636719-23.945312 16.316406-24 30.863281v8c0 4.417969 3.582031 8 8 8zm24-32c8.835938 0 16 7.164062 16 16h-32c0-8.835938 7.164062-16 16-16zm0 0"/><path d="m248 136h48c4.417969 0 8-3.582031 8-8v-8c-.054688-14.546875-9.914062-27.226562-24-30.863281v-89.136719h-16v89.136719c-14.085938 3.636719-23.945312 16.316406-24 30.863281v8c0 4.417969 3.582031 8 8 8zm24-32c8.835938 0 16 7.164062 16 16h-32c0-8.835938 7.164062-16 16-16zm0 0"/></symbol><symbol id="placeholder" viewBox="0 0 54.757 54.757">
<path d="M40.94,5.617C37.318,1.995,32.502,0,27.38,0c-5.123,0-9.938,1.995-13.56,5.617c-6.703,6.702-7.536,19.312-1.804,26.952
	L27.38,54.757L42.721,32.6C48.476,24.929,47.643,12.319,40.94,5.617z M27.557,26c-3.859,0-7-3.141-7-7s3.141-7,7-7s7,3.141,7,7
	S31.416,26,27.557,26z"/>
<g>
</g>
<g>
</g>
<g>
</g>
<g>
</g>
<g>
</g>
<g>
</g>
<g>
</g>
<g>
</g>
<g>
</g>
<g>
</g>
<g>
</g>
<g>
</g>
<g>
</g>
<g>
</g>
<g>
</g>
</symbol><symbol id="sketch" viewBox="0 0 511.999 511.999">
<g>
	<g>
		<path d="M453.034,361.322c-2.808-1.164-6.04-0.521-8.19,1.628l-82.126,82.126c-2.149,2.15-2.792,5.382-1.628,8.19
			c1.162,2.809,3.904,4.639,6.943,4.639h82.126c4.151,0,7.515-3.364,7.515-7.515v-82.126
			C457.673,365.225,455.842,362.485,453.034,361.322z M386.173,442.876l56.469-56.469v56.469H386.173z"/>
	</g>
</g>
<g>
	<g>
		<path d="M507.361,240.867c-2.808-1.164-6.04-0.521-8.19,1.628l-22.507,22.507V111.971c0-4.151-3.365-7.515-7.515-7.515h-57.741
			l20.96-20.96c0.003-0.003,0.006-0.007,0.009-0.01l20.196-20.196c4.327-4.327,6.71-10.083,6.71-16.203s-2.383-11.874-6.71-16.203
			L429.219,7.53c-4.327-4.327-10.083-6.71-16.203-6.71s-11.875,2.383-16.203,6.71l-20.206,20.206l-24.416,24.416l-52.303,52.303
			H66.62V30.11c0-4.151-3.365-7.515-7.515-7.515C26.515,22.597,0,49.11,0,81.702v319.186c0,0.555,0.064,1.095,0.178,1.615
			c1.038,13.829,7.021,26.678,17.02,36.432C27.886,449.359,41.995,455.1,56.927,455.1h229.638l-43.249,43.249
			c-2.149,2.15-2.792,5.381-1.629,8.19c1.163,2.808,3.904,4.639,6.943,4.639h255.855c4.15,0,7.515-3.364,7.515-7.515V247.81
			C512,244.771,510.168,242.03,507.361,240.867z M407.443,18.159c3.072-3.074,8.077-3.074,11.149,0l23.355,23.355
			c3.074,3.073,3.074,8.076,0,11.15l-14.891,14.892L392.55,33.051L407.443,18.159z M381.922,43.679l34.505,34.504l-13.789,13.789
			l-34.503-34.504L381.922,43.679z M496.972,332.252h-13.865c-4.151,0-7.515,3.364-7.515,7.515c0,4.151,3.364,7.515,7.515,7.515
			h13.865v22.646h-13.865c-4.151,0-7.515,3.364-7.515,7.515s3.364,7.515,7.515,7.515h13.865v22.645h-13.865
			c-4.151,0-7.515,3.364-7.515,7.515c0,4.151,3.364,7.515,7.515,7.515h13.865v22.646h-13.865c-4.151,0-7.515,3.365-7.515,7.515
			c0,4.151,3.364,7.515,7.515,7.515h13.865v35.842h-230.2l75.908-75.907c2.935-2.936,2.935-7.693,0-10.628
			c-0.337-0.337-0.699-0.629-1.078-0.889c-2.926-2.004-6.952-1.709-9.551,0.889l-30.456,30.456H56.928
			c-22.792,0-41.14-17.794-41.862-40.545c0.043-1.428,0.154-2.844,0.332-4.244c0.001-0.008,0.002-0.016,0.003-0.024
			c0.084-0.665,0.185-1.327,0.3-1.985c0.013-0.075,0.027-0.15,0.04-0.225c0.105-0.587,0.223-1.171,0.352-1.753
			c0.036-0.162,0.074-0.324,0.112-0.485c0.114-0.492,0.237-0.981,0.369-1.468c0.072-0.264,0.147-0.525,0.224-0.788
			c0.11-0.382,0.224-0.763,0.345-1.14c0.121-0.377,0.25-0.75,0.381-1.123c0.091-0.261,0.181-0.522,0.279-0.781
			c0.183-0.492,0.377-0.979,0.577-1.462c0.057-0.139,0.113-0.28,0.172-0.419c0.257-0.6,0.524-1.193,0.806-1.779
			c0.012-0.025,0.023-0.05,0.035-0.075c5.878-12.164,17.183-21.233,30.75-24.047c0.038-0.008,0.076-0.017,0.114-0.025
			c0.622-0.127,1.25-0.236,1.882-0.337c0.105-0.017,0.21-0.038,0.317-0.054c0.571-0.087,1.148-0.155,1.725-0.22
			c0.162-0.018,0.323-0.043,0.486-0.059c0.557-0.056,1.119-0.093,1.681-0.128c0.178-0.011,0.356-0.03,0.534-0.039
			c0.736-0.037,1.478-0.056,2.223-0.056c4.15,0,7.515-3.364,7.515-7.515v-54.489c0-4.151-3.365-7.515-7.515-7.515
			c-4.15,0-7.515,3.364-7.515,7.515v47.447c-12.69,1.605-24.469,7.265-33.757,16.335c-0.977,0.954-1.903,1.946-2.805,2.954V81.702
			c0-21.741,15.826-39.858,36.561-43.436v73.705v152.777v0.001c0,4.15,3.365,7.515,7.515,7.515c4.15,0,7.515-3.365,7.515-7.515
			v-0.001V119.486h218.24l-41.544,41.544c-2.935,2.936-2.935,7.693,0,10.628c2.935,2.934,7.693,2.934,10.627,0l54.373-54.373
			c0.002-0.002,0.003-0.004,0.005-0.005l49.185-49.185l34.503,34.505l-4.048,4.048c-0.003,0.003-0.007,0.006-0.01,0.009
			l-151.528,151.53l-34.504-34.504l29.868-29.868c2.935-2.936,2.935-7.693,0-10.628c-2.935-2.934-7.693-2.934-10.627,0
			l-35.183,35.182c-0.188,0.188-0.364,0.387-0.529,0.591c-0.055,0.068-0.104,0.141-0.156,0.212c-0.106,0.141-0.21,0.283-0.307,0.431
			c-0.055,0.086-0.105,0.174-0.157,0.263c-0.083,0.14-0.163,0.282-0.236,0.427c-0.048,0.094-0.091,0.189-0.135,0.287
			c-0.067,0.147-0.129,0.297-0.186,0.447c-0.02,0.053-0.046,0.103-0.065,0.156l-14.641,41.475l-9.982,28.279
			c-0.132,0.376-0.227,0.758-0.298,1.143h-24.992c-4.15,0-7.515,3.364-7.515,7.515c0,4.151,3.365,7.515,7.515,7.515h208.114
			c4.151,0,7.515-3.364,7.515-7.515c0-4.151-3.364-7.515-7.515-7.515H193.093l45.83-16.178c0.038-0.014,0.074-0.033,0.112-0.047
			c0.178-0.066,0.353-0.14,0.526-0.219c0.069-0.032,0.138-0.062,0.205-0.095c0.18-0.09,0.357-0.189,0.531-0.295
			c0.056-0.034,0.114-0.065,0.169-0.1c0.181-0.116,0.357-0.243,0.53-0.377c0.043-0.033,0.088-0.062,0.13-0.096
			c0.209-0.168,0.414-0.349,0.608-0.543l154.644-154.643h65.255v160.546L354.137,387.53c-2.935,2.936-2.935,7.693,0,10.628
			c0.183,0.183,0.374,0.355,0.571,0.516c1.378,1.123,3.061,1.685,4.743,1.685s3.366-0.562,4.743-1.685
			c0.197-0.16,0.388-0.333,0.571-0.516c0.003-0.003,0,0,0.003-0.003L496.972,265.95V332.252z M222.677,265.696l-21.526,7.599
			l-14.342-14.342l7.599-21.526L222.677,265.696z"/>
	</g>
</g>
<g>
</g>
<g>
</g>
<g>
</g>
<g>
</g>
<g>
</g>
<g>
</g>
<g>
</g>
<g>
</g>
<g>
</g>
<g>
</g>
<g>
</g>
<g>
</g>
<g>
</g>
<g>
</g>
<g>
</g>
</symbol><symbol id="stairs" viewBox="0 0 59 59">
<path d="M49,11.289v5.422C49,16.87,48.87,17,48.71,17H48V2h10c0.552,0,1-0.447,1-1s-0.448-1-1-1H47c-0.044,0-0.082,0.02-0.124,0.025
	c-0.072,0.009-0.142,0.017-0.211,0.042c-0.066,0.024-0.122,0.06-0.18,0.096c-0.039,0.024-0.083,0.034-0.119,0.064L3.841,35.191
	c-0.426,0.351-0.488,0.981-0.137,1.407c0.198,0.241,0.484,0.365,0.773,0.365c0.224,0,0.449-0.074,0.635-0.228L7,35.183V49H2.29
	C1.027,49,0,50.027,0,51.289V59h59V9h-7.71C50.027,9,49,10.027,49,11.289z M41.29,17C40.027,17,39,18.027,39,19.289V25h-1V9.695
	l8-6.578V17H41.29z M32.29,25C31.027,25,30,26.027,30,27.289v5.422C30,32.87,29.87,33,29.71,33H29V17.095l7-5.756V25H32.29z
	 M22.29,33C21.027,33,20,34.027,20,35.289v5.422C20,40.87,19.87,41,19.71,41H19V25.317l8-6.578V33H22.29z M9,33.539l8-6.578V41
	h-4.71C11.027,41,10,42.027,10,43.289v5.422C10,48.87,9.87,49,9.71,49H9V33.539z M57,57H2v-5.711C2,51.13,2.13,51,2.29,51H9.71
	c1.263,0,2.29-1.027,2.29-2.289v-5.422C12,43.13,12.13,43,12.29,43h7.421c1.263,0,2.29-1.027,2.29-2.289v-5.422
	C22,35.13,22.13,35,22.29,35h7.421c1.263,0,2.29-1.027,2.29-2.289v-5.422C32,27.13,32.13,27,32.29,27H41v-7.711
	C41,19.13,41.13,19,41.29,19h7.421c1.263,0,2.29-1.027,2.29-2.289v-5.422C51,11.13,51.13,11,51.29,11H57V57z"/>
<g>
</g>
<g>
</g>
<g>
</g>
<g>
</g>
<g>
</g>
<g>
</g>
<g>
</g>
<g>
</g>
<g>
</g>
<g>
</g>
<g>
</g>
<g>
</g>
<g>
</g>
<g>
</g>
<g>
</g>
</symbol><symbol id="twitter" viewBox="0 0 512 512">
<g>
	<g>
		<path d="M512,97.248c-19.04,8.352-39.328,13.888-60.48,16.576c21.76-12.992,38.368-33.408,46.176-58.016
			c-20.288,12.096-42.688,20.64-66.56,25.408C411.872,60.704,384.416,48,354.464,48c-58.112,0-104.896,47.168-104.896,104.992
			c0,8.32,0.704,16.32,2.432,23.936c-87.264-4.256-164.48-46.08-216.352-109.792c-9.056,15.712-14.368,33.696-14.368,53.056
			c0,36.352,18.72,68.576,46.624,87.232c-16.864-0.32-33.408-5.216-47.424-12.928c0,0.32,0,0.736,0,1.152
			c0,51.008,36.384,93.376,84.096,103.136c-8.544,2.336-17.856,3.456-27.52,3.456c-6.72,0-13.504-0.384-19.872-1.792
			c13.6,41.568,52.192,72.128,98.08,73.12c-35.712,27.936-81.056,44.768-130.144,44.768c-8.608,0-16.864-0.384-25.12-1.44
			C46.496,446.88,101.6,464,161.024,464c193.152,0,298.752-160,298.752-298.688c0-4.64-0.16-9.12-0.384-13.568
			C480.224,136.96,497.728,118.496,512,97.248z"/>
	</g>
</g>
<g>
</g>
<g>
</g>
<g>
</g>
<g>
</g>
<g>
</g>
<g>
</g>
<g>
</g>
<g>
</g>
<g>
</g>
<g>
</g>
<g>
</g>
<g>
</g>
<g>
</g>
<g>
</g>
<g>
</g>
</symbol><symbol id="window-door" viewBox="0 0 863.8 512">
<path d="M321,0H7.5C3.4,0,0,3.4,0,7.5V297c0,4.1,3.4,7.5,7.5,7.5s7.5-3.4,7.5-7.5V15h298.5V497h-17V395.4c0-4.1-3.4-7.5-7.5-7.5
	s-7.5,3.4-7.5,7.5V497H47V47h234.5v318.3c0,4.1,3.4,7.5,7.5,7.5c4.1,0,7.5-3.4,7.5-7.5V39.5c0-4.2-3.4-7.5-7.5-7.5H39.5
	c-4.2,0-7.5,3.4-7.5,7.5V497H15V327c0-4.1-3.4-7.5-7.5-7.5S0,322.9,0,327v177.4c0,4.1,3.4,7.5,7.5,7.5H321c4.1,0,7.5-3.4,7.5-7.5
	V7.5C328.5,3.4,325.2,0,321,0L321,0z"/>
<path d="M81.3,167.6c-4.1,0-7.5,3.4-7.5,7.5V247c0,4.1,3.4,7.5,7.5,7.5h166c4.1,0,7.5-3.4,7.5-7.5V80.3c0-4.2-3.4-7.5-7.5-7.5h-166
	c-4.1,0-7.5,3.4-7.5,7.5v64.8c0,4.1,3.4,7.5,7.5,7.5s7.5-3.4,7.5-7.5V87.8h151v151.7h-151v-64.4C88.8,171,85.4,167.6,81.3,167.6
	L81.3,167.6z"/>
<path d="M73.7,463.7c0,4.1,3.4,7.5,7.5,7.5h166c4.1,0,7.5-3.4,7.5-7.5V297c0-4.1-3.4-7.5-7.5-7.5h-166c-4.1,0-7.5,3.4-7.5,7.5
	L73.7,463.7z M88.8,304.5h151v151.7h-151L88.8,304.5z"/>
<path d="M274.6,272c0-7.8-6.4-14.2-14.2-14.2c-5.1,0-9.5,2.7-12,6.7h-17.9c-4.1,0-7.5,3.4-7.5,7.5c0,4.1,3.4,7.5,7.5,7.5h17.9
	c2.5,4,6.9,6.7,12,6.7C268.2,286.2,274.6,279.8,274.6,272z"/>
<g>
	<path d="M855.3,452.3h-42.7V76.8c14.1,0,25.6-11.5,25.6-25.6V8.5c0-4.7-3.8-8.5-8.5-8.5H385.9c-4.7,0-8.5,3.8-8.5,8.5v42.7
		c0,14.1,11.5,25.6,25.6,25.6v375.5h-42.7c-4.7,0-8.5,3.8-8.5,8.5v42.7c0,4.7,3.8,8.5,8.5,8.5h494.9c4.7,0,8.5-3.8,8.5-8.5v-42.7
		C863.8,456.1,860,452.3,855.3,452.3z M394.5,51.2V17.1h426.7v34.1c0,4.7-3.8,8.5-8.5,8.5H403C398.3,59.7,394.5,55.9,394.5,51.2z
		 M795.5,76.8v375.5H420.1V76.8H795.5z M846.7,494.9H368.9v-25.6h477.9V494.9z"/>
	<path d="M778.5,85.3H437.1c-4.7,0-8.5,3.8-8.5,8.5v341.3c0,4.7,3.8,8.5,8.5,8.5h341.3c4.7,0,8.5-3.8,8.5-8.5V93.9
		C787,89.2,783.2,85.3,778.5,85.3z M599.3,426.7H445.7V264.5h153.6V426.7z M599.3,247.5H445.7V102.4h153.6V247.5z M769.9,426.7
		H616.3V264.5h153.6V426.7z M769.9,247.5H616.3V102.4h153.6V247.5z"/>
	<path d="M465.2,156.1l34.1-34.1l12.1,12.1l-34.1,34.1L465.2,156.1z"/>
	<path d="M465.2,198.8L542,122L554,134l-76.8,76.8L465.2,198.8z"/>
</g>
</symbol><symbol id="window" viewBox="0 0 512 512">
<path d="M488,440h-40V88c13.2,0,24-10.8,24-24V24c0-4.4-3.6-8-8-8H48c-4.4,0-8,3.6-8,8v40c0,13.2,10.8,24,24,24v352H24
	c-4.4,0-8,3.6-8,8v40c0,4.4,3.6,8,8,8h464c4.4,0,8-3.6,8-8v-40C496,443.6,492.4,440,488,440z M56,64V32h400v32c0,4.4-3.6,8-8,8H64
	C59.6,72,56,68.4,56,64z M432,88v352H80V88H432z M480,480H32v-24h448V480z"/>
<path d="M416,96H96c-4.4,0-8,3.6-8,8v320c0,4.4,3.6,8,8,8h320c4.4,0,8-3.6,8-8V104C424,99.6,420.4,96,416,96z M248,416H104V264h144
	V416z M248,248H104V112h144V248z M408,416H264V264h144V416z M408,248H264V112h144V248z"/>
<path d="M122.3,162.3l32-32l11.3,11.3l-32,32L122.3,162.3z"/>
<path d="M122.3,202.3l72-72l11.3,11.3l-72,72L122.3,202.3z"/>
</symbol></svg>